M48
INCH
T110C0.020
T109C0.039
T108C0.035
T107C0.038
T106C0.102
T105C0.094
%
T110
X007520Y003622
X007520Y004488
X007992Y004488
X010472Y006890
X010709Y006220
X007716Y008346
X006096Y007583
X007205Y007677
X007047Y004488
X006102Y007008
X011063Y007362
T108
X002716Y007165
X002716Y005433
T107
X005512Y007791
X005512Y006791
X005512Y005791
X005512Y004791
X014409Y008780
X014409Y007780
X014409Y006780
X014409Y005780
X014409Y004780
X014409Y003780
T109
X006693Y005315
X006693Y007284
X012402Y005315
X012402Y006299
X012402Y007284
T105
X009449Y002067
X009449Y010532
T106
X009449Y004468
X009449Y008130
M30
