G04 start of page 4 for group 2 idx 2 *
G04 Title: (unknown), signal2 *
G04 Creator: pcb 20110918 *
G04 CreationDate: Mon 28 Oct 2013 08:12:09 PM GMT UTC *
G04 For: tszabo *
G04 Format: Gerber/RS-274X *
G04 PCB-Dimensions: 157480 125984 *
G04 PCB-Coordinate-Origin: lower left *
%MOIN*%
%FSLAX25Y25*%
%LNGROUP2*%
%ADD49C,0.0394*%
%ADD48C,0.0380*%
%ADD47C,0.0197*%
%ADD46C,0.0945*%
%ADD45C,0.0200*%
%ADD44C,0.0360*%
%ADD43C,0.0709*%
%ADD42C,0.0354*%
%ADD41C,0.0600*%
%ADD40C,0.0001*%
%ADD39C,0.1024*%
%ADD38C,0.1575*%
G54D38*X94488Y20669D03*
G54D39*Y44685D03*
G54D38*Y105315D03*
G54D39*Y81299D03*
G54D40*G36*
X52117Y80913D02*Y74913D01*
X58117D01*
Y80913D01*
X52117D01*
G37*
G54D41*X55117Y67913D03*
G54D42*X27164Y71653D03*
Y54331D03*
G54D41*X55117Y57913D03*
Y47913D03*
G54D43*X66929Y53149D03*
Y72835D03*
G54D40*G36*
X141094Y90795D02*Y84795D01*
X147094D01*
Y90795D01*
X141094D01*
G37*
G54D41*X144094Y77795D03*
Y67795D03*
Y57795D03*
Y47795D03*
Y37795D03*
G54D40*G36*
X120472Y56692D02*Y49606D01*
X127560D01*
Y56692D01*
X120472D01*
G37*
G54D43*X124016Y62992D03*
Y72835D03*
G54D44*X75197Y36220D03*
Y44882D03*
X79921D03*
X104724Y68897D03*
X107087Y62204D03*
X77165Y83464D03*
X60964Y75832D03*
X72047Y76771D03*
X70472Y44882D03*
X61024Y70078D03*
X110630Y73622D03*
G54D45*G54D46*G54D47*G54D39*G54D46*G54D47*G54D39*G54D48*G54D47*G54D42*G54D48*G54D47*G54D49*G54D47*G54D48*G54D47*G54D48*G54D47*G54D49*M02*
