M48
INCH
T111C0.020
%
T111
X009449Y003346
X009055Y003346
X008661Y003346
X008268Y003346
X009842Y003346
X010236Y003346
X010629Y003346
X009449Y009291
X009842Y009291
X010236Y009291
X010629Y009291
X009055Y009291
X008661Y009291
X008268Y009291
X004724Y009054
X004724Y008661
X004724Y008267
X004724Y007874
X004724Y007480
X004724Y007086
X004724Y006693
X004724Y006299
X004724Y003544
X004724Y003938
X004724Y004331
X004724Y004725
X004724Y005118
X004724Y005512
X004724Y005906
X013425Y009054
X013425Y008661
X013425Y008267
X013425Y007874
X013425Y007480
X013425Y007086
X013425Y006693
X013425Y003938
X013425Y003544
X013425Y004331
X013425Y004725
X013425Y005118
X013425Y005512
X013425Y005906
X013425Y006299
M30
