G04 start of page 2 for group 0 idx 0 *
G04 Title: (unknown), top *
G04 Creator: pcb 20110918 *
G04 CreationDate: Mon 28 Oct 2013 08:12:09 PM GMT UTC *
G04 For: tszabo *
G04 Format: Gerber/RS-274X *
G04 PCB-Dimensions: 157480 125984 *
G04 PCB-Coordinate-Origin: lower left *
%MOIN*%
%FSLAX25Y25*%
%LNTOP*%
%ADD25C,0.0394*%
%ADD24C,0.0380*%
%ADD23C,0.0197*%
%ADD22C,0.0945*%
%ADD21C,0.0360*%
%ADD20R,0.0807X0.0807*%
%ADD19R,0.0197X0.0197*%
%ADD18C,0.0709*%
%ADD17C,0.0354*%
%ADD16C,0.0600*%
%ADD15C,0.1024*%
%ADD14C,0.1575*%
%ADD13C,0.0200*%
%ADD12C,0.0100*%
%ADD11C,0.0001*%
G54D11*G36*
X94471Y120078D02*X108268D01*
Y94094D01*
X94471D01*
Y94456D01*
X94488Y94455D01*
X96187Y94588D01*
X97844Y94986D01*
X99419Y95638D01*
X100872Y96529D01*
X102167Y97636D01*
X103274Y98931D01*
X104165Y100384D01*
X104817Y101959D01*
X105215Y103616D01*
X105315Y105315D01*
X105215Y107014D01*
X104817Y108671D01*
X104165Y110246D01*
X103274Y111699D01*
X102167Y112994D01*
X100872Y114101D01*
X99419Y114992D01*
X97844Y115644D01*
X96187Y116042D01*
X94488Y116175D01*
X94471Y116174D01*
Y120078D01*
G37*
G36*
X80709D02*X94471D01*
Y116174D01*
X92789Y116042D01*
X91132Y115644D01*
X89557Y114992D01*
X88104Y114101D01*
X86809Y112994D01*
X85702Y111699D01*
X84811Y110246D01*
X84159Y108671D01*
X83761Y107014D01*
X83628Y105315D01*
X83761Y103616D01*
X84159Y101959D01*
X84811Y100384D01*
X85702Y98931D01*
X86809Y97636D01*
X88104Y96529D01*
X89557Y95638D01*
X91132Y94986D01*
X92789Y94588D01*
X94471Y94456D01*
Y94094D01*
X80709D01*
Y120078D01*
G37*
G36*
X108268Y5905D02*X94471D01*
Y9810D01*
X94488Y9809D01*
X96187Y9942D01*
X97844Y10340D01*
X99419Y10992D01*
X100872Y11883D01*
X102167Y12990D01*
X103274Y14285D01*
X104165Y15738D01*
X104817Y17313D01*
X105215Y18970D01*
X105315Y20669D01*
X105215Y22368D01*
X104817Y24025D01*
X104165Y25600D01*
X103274Y27053D01*
X102167Y28348D01*
X100872Y29455D01*
X99419Y30346D01*
X97844Y30998D01*
X96187Y31396D01*
X94488Y31529D01*
X94471Y31528D01*
Y31890D01*
X108268D01*
Y5905D01*
G37*
G36*
X94471D02*X80709D01*
Y31890D01*
X94471D01*
Y31528D01*
X92789Y31396D01*
X91132Y30998D01*
X89557Y30346D01*
X88104Y29455D01*
X86809Y28348D01*
X85702Y27053D01*
X84811Y25600D01*
X84159Y24025D01*
X83761Y22368D01*
X83628Y20669D01*
X83761Y18970D01*
X84159Y17313D01*
X84811Y15738D01*
X85702Y14285D01*
X86809Y12990D01*
X88104Y11883D01*
X89557Y10992D01*
X91132Y10340D01*
X92789Y9942D01*
X94471Y9810D01*
Y5905D01*
G37*
G36*
X147844Y35302D02*X148116Y35746D01*
X148387Y36400D01*
X148552Y37089D01*
X148594Y37795D01*
X148552Y38501D01*
X148387Y39190D01*
X148116Y39844D01*
X147844Y40288D01*
Y45302D01*
X148116Y45746D01*
X148387Y46400D01*
X148552Y47089D01*
X148594Y47795D01*
X148552Y48501D01*
X148387Y49190D01*
X148116Y49844D01*
X147844Y50288D01*
Y55302D01*
X148116Y55746D01*
X148387Y56400D01*
X148552Y57089D01*
X148594Y57795D01*
X148552Y58501D01*
X148387Y59190D01*
X148116Y59844D01*
X147844Y60288D01*
Y65302D01*
X148116Y65746D01*
X148387Y66400D01*
X148552Y67089D01*
X148594Y67795D01*
X148552Y68501D01*
X148387Y69190D01*
X148116Y69844D01*
X147844Y70288D01*
Y75302D01*
X148116Y75746D01*
X148387Y76400D01*
X148552Y77089D01*
X148594Y77795D01*
X148552Y78501D01*
X148387Y79190D01*
X148116Y79844D01*
X147844Y80288D01*
Y85543D01*
X147962Y85552D01*
X148076Y85580D01*
X148186Y85625D01*
X148286Y85686D01*
X148376Y85763D01*
X148453Y85853D01*
X148514Y85953D01*
X148559Y86063D01*
X148587Y86177D01*
X148594Y86295D01*
Y89295D01*
X148587Y89413D01*
X148559Y89527D01*
X148514Y89637D01*
X148453Y89737D01*
X148376Y89827D01*
X148286Y89904D01*
X148186Y89965D01*
X148076Y90010D01*
X147962Y90038D01*
X147844Y90047D01*
Y94488D01*
X151575D01*
Y31496D01*
X147844D01*
Y35302D01*
G37*
G36*
Y80288D02*X147746Y80448D01*
X147286Y80987D01*
X146747Y81447D01*
X146143Y81817D01*
X145489Y82088D01*
X144800Y82253D01*
X144094Y82309D01*
Y83295D01*
X145594D01*
X145712Y83302D01*
X145826Y83330D01*
X145936Y83375D01*
X146036Y83436D01*
X146126Y83513D01*
X146203Y83603D01*
X146264Y83703D01*
X146309Y83813D01*
X146337Y83927D01*
X146346Y84045D01*
X146337Y84163D01*
X146309Y84277D01*
X146264Y84387D01*
X146203Y84487D01*
X146126Y84577D01*
X146036Y84654D01*
X145936Y84715D01*
X145826Y84760D01*
X145712Y84788D01*
X145594Y84795D01*
X144094D01*
Y90795D01*
X145594D01*
X145712Y90802D01*
X145826Y90830D01*
X145936Y90875D01*
X146036Y90936D01*
X146126Y91013D01*
X146203Y91103D01*
X146264Y91203D01*
X146309Y91313D01*
X146337Y91427D01*
X146346Y91545D01*
X146337Y91663D01*
X146309Y91777D01*
X146264Y91887D01*
X146203Y91987D01*
X146126Y92077D01*
X146036Y92154D01*
X145936Y92215D01*
X145826Y92260D01*
X145712Y92288D01*
X145594Y92295D01*
X144094D01*
Y94488D01*
X147844D01*
Y90047D01*
X147726Y90038D01*
X147612Y90010D01*
X147502Y89965D01*
X147402Y89904D01*
X147312Y89827D01*
X147235Y89737D01*
X147174Y89637D01*
X147129Y89527D01*
X147101Y89413D01*
X147094Y89295D01*
Y86295D01*
X147101Y86177D01*
X147129Y86063D01*
X147174Y85953D01*
X147235Y85853D01*
X147312Y85763D01*
X147402Y85686D01*
X147502Y85625D01*
X147612Y85580D01*
X147726Y85552D01*
X147844Y85543D01*
Y80288D01*
G37*
G36*
Y70288D02*X147746Y70448D01*
X147286Y70987D01*
X146747Y71447D01*
X146143Y71817D01*
X145489Y72088D01*
X144800Y72253D01*
X144094Y72309D01*
Y73281D01*
X144800Y73337D01*
X145489Y73502D01*
X146143Y73773D01*
X146747Y74143D01*
X147286Y74603D01*
X147746Y75142D01*
X147844Y75302D01*
Y70288D01*
G37*
G36*
Y60288D02*X147746Y60448D01*
X147286Y60987D01*
X146747Y61447D01*
X146143Y61817D01*
X145489Y62088D01*
X144800Y62253D01*
X144094Y62309D01*
Y63281D01*
X144800Y63337D01*
X145489Y63502D01*
X146143Y63773D01*
X146747Y64143D01*
X147286Y64603D01*
X147746Y65142D01*
X147844Y65302D01*
Y60288D01*
G37*
G36*
Y50288D02*X147746Y50448D01*
X147286Y50987D01*
X146747Y51447D01*
X146143Y51817D01*
X145489Y52088D01*
X144800Y52253D01*
X144094Y52309D01*
Y53281D01*
X144800Y53337D01*
X145489Y53502D01*
X146143Y53773D01*
X146747Y54143D01*
X147286Y54603D01*
X147746Y55142D01*
X147844Y55302D01*
Y50288D01*
G37*
G36*
Y40288D02*X147746Y40448D01*
X147286Y40987D01*
X146747Y41447D01*
X146143Y41817D01*
X145489Y42088D01*
X144800Y42253D01*
X144094Y42309D01*
Y43281D01*
X144800Y43337D01*
X145489Y43502D01*
X146143Y43773D01*
X146747Y44143D01*
X147286Y44603D01*
X147746Y45142D01*
X147844Y45302D01*
Y40288D01*
G37*
G36*
X144094Y33281D02*X144800Y33337D01*
X145489Y33502D01*
X146143Y33773D01*
X146747Y34143D01*
X147286Y34603D01*
X147746Y35142D01*
X147844Y35302D01*
Y31496D01*
X144094D01*
Y33281D01*
G37*
G36*
X140344Y55302D02*X140442Y55142D01*
X140902Y54603D01*
X141441Y54143D01*
X142045Y53773D01*
X142699Y53502D01*
X143388Y53337D01*
X144094Y53281D01*
Y52309D01*
X143388Y52253D01*
X142699Y52088D01*
X142045Y51817D01*
X141441Y51447D01*
X140902Y50987D01*
X140442Y50448D01*
X140344Y50288D01*
Y55302D01*
G37*
G36*
Y65302D02*X140442Y65142D01*
X140902Y64603D01*
X141441Y64143D01*
X142045Y63773D01*
X142699Y63502D01*
X143388Y63337D01*
X144094Y63281D01*
Y62309D01*
X143388Y62253D01*
X142699Y62088D01*
X142045Y61817D01*
X141441Y61447D01*
X140902Y60987D01*
X140442Y60448D01*
X140344Y60288D01*
Y65302D01*
G37*
G36*
Y75302D02*X140442Y75142D01*
X140902Y74603D01*
X141441Y74143D01*
X142045Y73773D01*
X142699Y73502D01*
X143388Y73337D01*
X144094Y73281D01*
Y72309D01*
X143388Y72253D01*
X142699Y72088D01*
X142045Y71817D01*
X141441Y71447D01*
X140902Y70987D01*
X140442Y70448D01*
X140344Y70288D01*
Y75302D01*
G37*
G36*
Y94488D02*X144094D01*
Y92295D01*
X142594D01*
X142476Y92288D01*
X142362Y92260D01*
X142252Y92215D01*
X142152Y92154D01*
X142062Y92077D01*
X141985Y91987D01*
X141924Y91887D01*
X141879Y91777D01*
X141851Y91663D01*
X141842Y91545D01*
X141851Y91427D01*
X141879Y91313D01*
X141924Y91203D01*
X141985Y91103D01*
X142062Y91013D01*
X142152Y90936D01*
X142252Y90875D01*
X142362Y90830D01*
X142476Y90802D01*
X142594Y90795D01*
X144094D01*
Y84795D01*
X142594D01*
X142476Y84788D01*
X142362Y84760D01*
X142252Y84715D01*
X142152Y84654D01*
X142062Y84577D01*
X141985Y84487D01*
X141924Y84387D01*
X141879Y84277D01*
X141851Y84163D01*
X141842Y84045D01*
X141851Y83927D01*
X141879Y83813D01*
X141924Y83703D01*
X141985Y83603D01*
X142062Y83513D01*
X142152Y83436D01*
X142252Y83375D01*
X142362Y83330D01*
X142476Y83302D01*
X142594Y83295D01*
X144094D01*
Y82309D01*
X143388Y82253D01*
X142699Y82088D01*
X142045Y81817D01*
X141441Y81447D01*
X140902Y80987D01*
X140442Y80448D01*
X140344Y80288D01*
Y85543D01*
X140462Y85552D01*
X140576Y85580D01*
X140686Y85625D01*
X140786Y85686D01*
X140876Y85763D01*
X140953Y85853D01*
X141014Y85953D01*
X141059Y86063D01*
X141087Y86177D01*
X141094Y86295D01*
Y89295D01*
X141087Y89413D01*
X141059Y89527D01*
X141014Y89637D01*
X140953Y89737D01*
X140876Y89827D01*
X140786Y89904D01*
X140686Y89965D01*
X140576Y90010D01*
X140462Y90038D01*
X140344Y90047D01*
Y94488D01*
G37*
G36*
X144094Y42309D02*X143388Y42253D01*
X142699Y42088D01*
X142045Y41817D01*
X141441Y41447D01*
X140902Y40987D01*
X140442Y40448D01*
X140344Y40288D01*
Y45302D01*
X140442Y45142D01*
X140902Y44603D01*
X141441Y44143D01*
X142045Y43773D01*
X142699Y43502D01*
X143388Y43337D01*
X144094Y43281D01*
Y42309D01*
G37*
G36*
X140344Y40288D02*X140101Y39892D01*
X137241Y42752D01*
X137006Y42961D01*
X136738Y43126D01*
X136447Y43246D01*
X136141Y43319D01*
X135827Y43344D01*
X135513Y43319D01*
X135207Y43246D01*
X134916Y43126D01*
X134648Y42961D01*
X134504Y42838D01*
X133213D01*
X133069Y42961D01*
X132801Y43126D01*
X132510Y43246D01*
X132204Y43319D01*
X131890Y43338D01*
X127895D01*
Y48471D01*
X127926Y48479D01*
X128097Y48550D01*
X128256Y48647D01*
X128397Y48768D01*
X128518Y48909D01*
X128615Y49068D01*
X128686Y49239D01*
X128730Y49420D01*
X128740Y49606D01*
X128730Y56878D01*
X128686Y57059D01*
X128615Y57230D01*
X128518Y57389D01*
X128397Y57530D01*
X128256Y57651D01*
X128097Y57748D01*
X127926Y57819D01*
X127895Y57827D01*
Y60474D01*
X127898Y60476D01*
X127979Y60522D01*
X128051Y60580D01*
X128114Y60649D01*
X128163Y60728D01*
X128356Y61112D01*
X128508Y61513D01*
X128624Y61927D01*
X128702Y62349D01*
X128740Y62777D01*
Y63207D01*
X128702Y63635D01*
X128624Y64057D01*
X128508Y64471D01*
X128356Y64872D01*
X128167Y65258D01*
X128116Y65337D01*
X128054Y65406D01*
X127981Y65465D01*
X127900Y65511D01*
X127895Y65513D01*
Y70122D01*
X128239Y70684D01*
X128523Y71371D01*
X128697Y72094D01*
X128740Y72835D01*
X128697Y73576D01*
X128523Y74299D01*
X128239Y74986D01*
X127895Y75548D01*
Y94488D01*
X140344D01*
Y90047D01*
X140226Y90038D01*
X140112Y90010D01*
X140002Y89965D01*
X139902Y89904D01*
X139812Y89827D01*
X139735Y89737D01*
X139674Y89637D01*
X139629Y89527D01*
X139601Y89413D01*
X139594Y89295D01*
Y86295D01*
X139601Y86177D01*
X139629Y86063D01*
X139674Y85953D01*
X139735Y85853D01*
X139812Y85763D01*
X139902Y85686D01*
X140002Y85625D01*
X140112Y85580D01*
X140226Y85552D01*
X140344Y85543D01*
Y80288D01*
X140072Y79844D01*
X139801Y79190D01*
X139636Y78501D01*
X139580Y77795D01*
X139636Y77089D01*
X139801Y76400D01*
X140072Y75746D01*
X140344Y75302D01*
Y70288D01*
X140072Y69844D01*
X139801Y69190D01*
X139636Y68501D01*
X139580Y67795D01*
X139636Y67089D01*
X139801Y66400D01*
X140072Y65746D01*
X140344Y65302D01*
Y60288D01*
X140072Y59844D01*
X139801Y59190D01*
X139636Y58501D01*
X139580Y57795D01*
X139636Y57089D01*
X139801Y56400D01*
X140072Y55746D01*
X140344Y55302D01*
Y50288D01*
X140072Y49844D01*
X139801Y49190D01*
X139636Y48501D01*
X139580Y47795D01*
X139636Y47089D01*
X139801Y46400D01*
X140072Y45746D01*
X140344Y45302D01*
Y40288D01*
G37*
G36*
X127895Y39338D02*X129013D01*
X131969Y36382D01*
X132007Y36337D01*
X132187Y36184D01*
X132388Y36060D01*
X132606Y35970D01*
X132836Y35915D01*
X133071Y35896D01*
X133130Y35901D01*
X138716D01*
X138750Y35887D01*
X138824Y35869D01*
X139056Y35814D01*
X139370Y35789D01*
X139448Y35795D01*
X140052D01*
X140072Y35746D01*
X140442Y35142D01*
X140902Y34603D01*
X141441Y34143D01*
X142045Y33773D01*
X142699Y33502D01*
X143388Y33337D01*
X144094Y33281D01*
Y31496D01*
X127895D01*
Y39338D01*
G37*
G36*
Y75548D02*X127850Y75621D01*
X127367Y76186D01*
X126802Y76669D01*
X126167Y77058D01*
X125480Y77342D01*
X124757Y77516D01*
X124016Y77574D01*
X124009Y77573D01*
Y94488D01*
X127895D01*
Y75548D01*
G37*
G36*
Y57827D02*X127745Y57863D01*
X127560Y57874D01*
X124009Y57868D01*
Y58268D01*
X124231D01*
X124659Y58306D01*
X125081Y58384D01*
X125495Y58500D01*
X125896Y58652D01*
X126282Y58841D01*
X126361Y58892D01*
X126430Y58954D01*
X126489Y59027D01*
X126535Y59108D01*
X126569Y59196D01*
X126588Y59287D01*
X126593Y59380D01*
X126583Y59473D01*
X126558Y59564D01*
X126520Y59649D01*
X126469Y59727D01*
X126406Y59797D01*
X126333Y59855D01*
X126252Y59902D01*
X126165Y59935D01*
X126073Y59955D01*
X125980Y59959D01*
X125887Y59949D01*
X125797Y59925D01*
X125712Y59885D01*
X125425Y59741D01*
X125124Y59626D01*
X124814Y59540D01*
X124497Y59481D01*
X124177Y59452D01*
X124009D01*
Y66532D01*
X124177D01*
X124497Y66503D01*
X124814Y66444D01*
X125124Y66358D01*
X125425Y66243D01*
X125714Y66102D01*
X125798Y66063D01*
X125888Y66038D01*
X125980Y66028D01*
X126073Y66033D01*
X126164Y66052D01*
X126251Y66085D01*
X126331Y66132D01*
X126404Y66190D01*
X126466Y66259D01*
X126517Y66337D01*
X126555Y66421D01*
X126579Y66511D01*
X126589Y66604D01*
X126584Y66696D01*
X126565Y66787D01*
X126532Y66874D01*
X126486Y66955D01*
X126428Y67027D01*
X126359Y67090D01*
X126280Y67139D01*
X125896Y67332D01*
X125495Y67484D01*
X125081Y67600D01*
X124659Y67678D01*
X124231Y67716D01*
X124009D01*
Y68097D01*
X124016Y68096D01*
X124757Y68154D01*
X125480Y68328D01*
X126167Y68612D01*
X126802Y69001D01*
X127367Y69484D01*
X127850Y70049D01*
X127895Y70122D01*
Y65513D01*
X127812Y65545D01*
X127721Y65564D01*
X127628Y65569D01*
X127535Y65559D01*
X127444Y65534D01*
X127359Y65496D01*
X127281Y65445D01*
X127211Y65382D01*
X127153Y65309D01*
X127106Y65228D01*
X127073Y65141D01*
X127053Y65049D01*
X127049Y64956D01*
X127059Y64863D01*
X127083Y64773D01*
X127123Y64688D01*
X127267Y64401D01*
X127382Y64100D01*
X127468Y63790D01*
X127527Y63473D01*
X127556Y63153D01*
Y62831D01*
X127527Y62511D01*
X127468Y62194D01*
X127382Y61884D01*
X127267Y61583D01*
X127126Y61294D01*
X127087Y61210D01*
X127062Y61120D01*
X127052Y61028D01*
X127057Y60935D01*
X127076Y60844D01*
X127109Y60757D01*
X127156Y60677D01*
X127214Y60604D01*
X127283Y60542D01*
X127361Y60491D01*
X127445Y60453D01*
X127535Y60429D01*
X127628Y60419D01*
X127720Y60424D01*
X127811Y60443D01*
X127895Y60474D01*
Y57827D01*
G37*
G36*
Y43338D02*X124057D01*
X124009Y43386D01*
Y48430D01*
X127745Y48435D01*
X127895Y48471D01*
Y43338D01*
G37*
G36*
X124009Y39338D02*X127895D01*
Y31496D01*
X124009D01*
Y39338D01*
G37*
G36*
X120137Y70122D02*X120182Y70049D01*
X120665Y69484D01*
X121230Y69001D01*
X121865Y68612D01*
X122552Y68328D01*
X123275Y68154D01*
X124009Y68097D01*
Y67716D01*
X123801D01*
X123373Y67678D01*
X122951Y67600D01*
X122537Y67484D01*
X122136Y67332D01*
X121750Y67143D01*
X121671Y67092D01*
X121602Y67030D01*
X121543Y66957D01*
X121497Y66876D01*
X121463Y66788D01*
X121444Y66697D01*
X121439Y66604D01*
X121449Y66511D01*
X121474Y66420D01*
X121512Y66335D01*
X121563Y66257D01*
X121626Y66187D01*
X121699Y66129D01*
X121780Y66082D01*
X121867Y66049D01*
X121959Y66029D01*
X122052Y66025D01*
X122145Y66035D01*
X122235Y66059D01*
X122320Y66099D01*
X122607Y66243D01*
X122908Y66358D01*
X123218Y66444D01*
X123535Y66503D01*
X123855Y66532D01*
X124009D01*
Y59452D01*
X123855D01*
X123535Y59481D01*
X123218Y59540D01*
X122908Y59626D01*
X122607Y59741D01*
X122318Y59882D01*
X122234Y59921D01*
X122144Y59946D01*
X122052Y59956D01*
X121959Y59951D01*
X121868Y59932D01*
X121781Y59899D01*
X121701Y59852D01*
X121628Y59794D01*
X121566Y59725D01*
X121515Y59647D01*
X121477Y59563D01*
X121453Y59473D01*
X121443Y59380D01*
X121448Y59288D01*
X121467Y59197D01*
X121500Y59110D01*
X121546Y59029D01*
X121604Y58957D01*
X121673Y58894D01*
X121752Y58845D01*
X122136Y58652D01*
X122537Y58500D01*
X122951Y58384D01*
X123373Y58306D01*
X123801Y58268D01*
X124009D01*
Y57868D01*
X120287Y57863D01*
X120137Y57827D01*
Y60471D01*
X120220Y60439D01*
X120311Y60420D01*
X120404Y60415D01*
X120497Y60425D01*
X120588Y60450D01*
X120673Y60488D01*
X120751Y60539D01*
X120821Y60602D01*
X120879Y60675D01*
X120926Y60756D01*
X120959Y60843D01*
X120979Y60935D01*
X120983Y61028D01*
X120973Y61121D01*
X120949Y61211D01*
X120909Y61296D01*
X120765Y61583D01*
X120650Y61884D01*
X120564Y62194D01*
X120505Y62511D01*
X120476Y62831D01*
Y63153D01*
X120505Y63473D01*
X120564Y63790D01*
X120650Y64100D01*
X120765Y64401D01*
X120906Y64690D01*
X120945Y64774D01*
X120970Y64864D01*
X120980Y64956D01*
X120975Y65049D01*
X120956Y65140D01*
X120923Y65227D01*
X120876Y65307D01*
X120818Y65380D01*
X120749Y65442D01*
X120671Y65493D01*
X120587Y65531D01*
X120497Y65555D01*
X120404Y65565D01*
X120312Y65560D01*
X120221Y65541D01*
X120137Y65510D01*
Y70122D01*
G37*
G36*
Y94488D02*X124009D01*
Y77573D01*
X123275Y77516D01*
X122552Y77342D01*
X121865Y77058D01*
X121230Y76669D01*
X120665Y76186D01*
X120182Y75621D01*
X120137Y75548D01*
Y94488D01*
G37*
G36*
X124009Y43386D02*X122012Y45382D01*
X120137Y47258D01*
Y48471D01*
X120287Y48435D01*
X120472Y48424D01*
X124009Y48430D01*
Y43386D01*
G37*
G36*
X120137Y47258D02*X118929Y48466D01*
Y75906D01*
X118935Y75984D01*
X118910Y76298D01*
X118837Y76604D01*
X118717Y76895D01*
X118552Y77163D01*
X118552Y77163D01*
X118348Y77403D01*
X118288Y77454D01*
X114856Y80886D01*
X114805Y80946D01*
X114565Y81150D01*
X114565Y81150D01*
X114297Y81315D01*
X114006Y81435D01*
X113700Y81508D01*
X113386Y81533D01*
X113308Y81527D01*
X107952D01*
X107874Y81533D01*
X107560Y81508D01*
X107254Y81435D01*
X106963Y81315D01*
X106695Y81150D01*
X106694Y81150D01*
X106455Y80946D01*
X106404Y80886D01*
X103366Y77847D01*
X103306Y77796D01*
X103101Y77557D01*
X102937Y77288D01*
X102816Y76998D01*
X102743Y76692D01*
X102718Y76378D01*
X102724Y76299D01*
Y70897D01*
X79165D01*
Y76693D01*
X79171Y76771D01*
X79165Y76850D01*
Y81494D01*
X79437Y81813D01*
X79668Y82189D01*
X79836Y82596D01*
X79939Y83025D01*
X79965Y83464D01*
X79939Y83903D01*
X79836Y84332D01*
X79668Y84739D01*
X79437Y85115D01*
X79151Y85450D01*
X78816Y85736D01*
X78440Y85967D01*
X78033Y86135D01*
X77604Y86238D01*
X77165Y86273D01*
X76726Y86238D01*
X76297Y86135D01*
X75890Y85967D01*
X75514Y85736D01*
X75179Y85450D01*
X74893Y85115D01*
X74662Y84739D01*
X74494Y84332D01*
X74391Y83903D01*
X74356Y83464D01*
X74391Y83025D01*
X74494Y82596D01*
X74662Y82189D01*
X74893Y81813D01*
X75159Y81502D01*
Y81502D01*
X75165Y81494D01*
Y78771D01*
X74017D01*
X74009Y78777D01*
X74009D01*
X73698Y79043D01*
X73322Y79274D01*
X72915Y79442D01*
X72486Y79545D01*
X72047Y79580D01*
X71608Y79545D01*
X71179Y79442D01*
X70772Y79274D01*
X70396Y79043D01*
X70061Y78757D01*
X69775Y78422D01*
X69544Y78046D01*
X69376Y77639D01*
X69360Y77574D01*
X69273Y77210D01*
X69253Y76952D01*
X69080Y77058D01*
X68393Y77342D01*
X67670Y77516D01*
X66929Y77574D01*
X66188Y77516D01*
X65465Y77342D01*
X64778Y77058D01*
X64143Y76669D01*
X63728Y76314D01*
X63635Y76700D01*
X63467Y77107D01*
X63236Y77483D01*
X63158Y77574D01*
X62950Y77818D01*
X62615Y78104D01*
X62239Y78335D01*
X61832Y78503D01*
X61403Y78606D01*
X60964Y78641D01*
X60525Y78606D01*
X60096Y78503D01*
X59689Y78335D01*
X59609Y78286D01*
X59603Y81148D01*
X59548Y81378D01*
X59458Y81596D01*
X59334Y81797D01*
X59181Y81977D01*
X59001Y82130D01*
X58800Y82254D01*
X58582Y82344D01*
X58352Y82399D01*
X58117Y82413D01*
X55119Y82406D01*
Y94488D01*
X94064D01*
X94488Y94455D01*
X94912Y94488D01*
X120137D01*
Y75548D01*
X119793Y74986D01*
X119509Y74299D01*
X119335Y73576D01*
X119277Y72835D01*
X119335Y72094D01*
X119509Y71371D01*
X119793Y70684D01*
X120137Y70122D01*
Y65510D01*
X120134Y65508D01*
X120053Y65462D01*
X119981Y65404D01*
X119918Y65335D01*
X119869Y65256D01*
X119676Y64872D01*
X119524Y64471D01*
X119408Y64057D01*
X119330Y63635D01*
X119292Y63207D01*
Y62777D01*
X119330Y62349D01*
X119408Y61927D01*
X119524Y61513D01*
X119676Y61112D01*
X119865Y60726D01*
X119916Y60647D01*
X119978Y60578D01*
X120051Y60519D01*
X120132Y60473D01*
X120137Y60471D01*
Y57827D01*
X120106Y57819D01*
X119935Y57748D01*
X119776Y57651D01*
X119635Y57530D01*
X119514Y57389D01*
X119417Y57230D01*
X119346Y57059D01*
X119302Y56878D01*
X119292Y56692D01*
X119302Y49420D01*
X119346Y49239D01*
X119417Y49068D01*
X119514Y48909D01*
X119635Y48768D01*
X119776Y48647D01*
X119935Y48550D01*
X120106Y48479D01*
X120137Y48471D01*
Y47258D01*
G37*
G36*
X70808Y70122D02*X71152Y70684D01*
X71436Y71371D01*
X71610Y72094D01*
X71654Y72835D01*
X71610Y73576D01*
X71503Y74022D01*
X71608Y73997D01*
X72047Y73962D01*
X72486Y73997D01*
X72915Y74100D01*
X73322Y74268D01*
X73698Y74499D01*
X74017Y74771D01*
X75165D01*
Y68976D01*
X75159Y68898D01*
X75159Y68894D01*
X75165Y68819D01*
Y54765D01*
X70808Y50407D01*
Y50631D01*
X70811Y50633D01*
X70892Y50679D01*
X70964Y50737D01*
X71027Y50806D01*
X71076Y50885D01*
X71269Y51269D01*
X71421Y51670D01*
X71537Y52084D01*
X71615Y52506D01*
X71653Y52934D01*
Y53364D01*
X71615Y53792D01*
X71537Y54214D01*
X71421Y54628D01*
X71269Y55029D01*
X71080Y55415D01*
X71029Y55494D01*
X70967Y55563D01*
X70894Y55622D01*
X70813Y55668D01*
X70808Y55670D01*
Y70122D01*
G37*
G36*
X112691Y75520D02*X112616Y75608D01*
X112281Y75894D01*
X111905Y76124D01*
X111498Y76293D01*
X111069Y76396D01*
X110630Y76430D01*
X110191Y76396D01*
X109762Y76293D01*
X109355Y76124D01*
X108979Y75894D01*
X108644Y75608D01*
X108358Y75273D01*
X108127Y74897D01*
X107959Y74490D01*
X107856Y74061D01*
X107821Y73622D01*
X107856Y73182D01*
X107959Y72754D01*
X108127Y72347D01*
X108358Y71971D01*
X108644Y71636D01*
X108979Y71350D01*
X109130Y71257D01*
Y64123D01*
X109073Y64190D01*
X108737Y64477D01*
X108362Y64707D01*
X107955Y64876D01*
X107526Y64979D01*
X107087Y65013D01*
X106647Y64979D01*
X106219Y64876D01*
X105812Y64707D01*
X105436Y64477D01*
X105101Y64190D01*
X104814Y63855D01*
X104584Y63480D01*
X104415Y63072D01*
X104313Y62644D01*
X104278Y62204D01*
X104283Y62134D01*
X104313Y61765D01*
X104354Y61593D01*
X101741Y58980D01*
X85885D01*
X85827Y58985D01*
X85595Y58966D01*
X85592Y58966D01*
X85362Y58911D01*
X85144Y58821D01*
X84943Y58697D01*
X84763Y58544D01*
X84725Y58499D01*
X74178Y47952D01*
X74133Y47914D01*
X73980Y47734D01*
X73856Y47533D01*
X73766Y47315D01*
X73759Y47284D01*
X73546Y47154D01*
X73211Y46868D01*
X72925Y46533D01*
X72834Y46386D01*
X72744Y46533D01*
X72673Y46616D01*
X78524Y52467D01*
X78584Y52518D01*
X78788Y52757D01*
X78788Y52757D01*
X78953Y53026D01*
X79073Y53316D01*
X79146Y53623D01*
X79171Y53936D01*
X79165Y54015D01*
Y66897D01*
X102755D01*
X103074Y66625D01*
X103449Y66395D01*
X103856Y66226D01*
X104285Y66123D01*
X104724Y66089D01*
X105164Y66123D01*
X105592Y66226D01*
X106000Y66395D01*
X106375Y66625D01*
X106710Y66911D01*
X106997Y67247D01*
X107227Y67622D01*
X107396Y68029D01*
X107498Y68458D01*
X107524Y68897D01*
X107498Y69337D01*
X107396Y69765D01*
X107227Y70172D01*
X106997Y70548D01*
X106724Y70867D01*
Y75549D01*
X108702Y77527D01*
X112558D01*
X114929Y75156D01*
Y47716D01*
X114923Y47638D01*
X114948Y47324D01*
X114948Y47324D01*
Y47324D01*
X114948Y47324D01*
X114991Y47143D01*
X115021Y47018D01*
X115021Y47018D01*
X115021Y47018D01*
X115087Y46859D01*
X115141Y46727D01*
X115141Y46727D01*
X115141Y46727D01*
X115222Y46595D01*
X115306Y46459D01*
X115306Y46459D01*
X115306Y46459D01*
X115510Y46219D01*
X115570Y46168D01*
X121758Y39979D01*
X121809Y39919D01*
X122048Y39716D01*
X122049Y39715D01*
X122049Y39715D01*
X122049Y39715D01*
X122171Y39640D01*
X122317Y39551D01*
X122317Y39551D01*
X122317Y39550D01*
X122466Y39489D01*
X122608Y39430D01*
X122608Y39430D01*
X122608Y39430D01*
X122770Y39391D01*
X122914Y39357D01*
X122914Y39357D01*
X122914Y39357D01*
X122915Y39356D01*
X123228Y39332D01*
X123306Y39338D01*
X124009D01*
Y31496D01*
X94912D01*
X94488Y31529D01*
X94064Y31496D01*
X70808D01*
Y34720D01*
X72832D01*
X72925Y34569D01*
X73211Y34234D01*
X73546Y33948D01*
X73922Y33717D01*
X74329Y33549D01*
X74758Y33446D01*
X75197Y33411D01*
X75636Y33446D01*
X76065Y33549D01*
X76472Y33717D01*
X76848Y33948D01*
X77183Y34234D01*
X77469Y34569D01*
X77700Y34945D01*
X77868Y35352D01*
X77971Y35781D01*
X77997Y36220D01*
X77971Y36659D01*
X77868Y37088D01*
X77700Y37495D01*
X77469Y37871D01*
X77183Y38206D01*
X76848Y38492D01*
X76472Y38723D01*
X76065Y38891D01*
X75636Y38994D01*
X75197Y39029D01*
X74758Y38994D01*
X74329Y38891D01*
X73922Y38723D01*
X73546Y38492D01*
X73211Y38206D01*
X72925Y37871D01*
X72835Y37725D01*
X72832Y37720D01*
X70808D01*
Y42100D01*
X70911Y42108D01*
X71340Y42211D01*
X71747Y42379D01*
X72123Y42610D01*
X72458Y42896D01*
X72744Y43231D01*
X72834Y43378D01*
X72925Y43231D01*
X73211Y42896D01*
X73546Y42610D01*
X73922Y42379D01*
X74329Y42211D01*
X74758Y42108D01*
X75197Y42073D01*
X75636Y42108D01*
X76065Y42211D01*
X76472Y42379D01*
X76848Y42610D01*
X77183Y42896D01*
X77469Y43231D01*
X77559Y43378D01*
X77649Y43231D01*
X77935Y42896D01*
X78270Y42610D01*
X78646Y42379D01*
X79053Y42211D01*
X79482Y42108D01*
X79921Y42073D01*
X80360Y42108D01*
X80789Y42211D01*
X81196Y42379D01*
X81572Y42610D01*
X81907Y42896D01*
X82193Y43231D01*
X82424Y43607D01*
X82592Y44014D01*
X82695Y44443D01*
X82721Y44882D01*
X82695Y45321D01*
X82595Y45739D01*
X82592Y45750D01*
X82424Y46157D01*
X82193Y46533D01*
X81907Y46868D01*
X81777Y46979D01*
X87629Y52830D01*
X105453D01*
X105512Y52826D01*
X105747Y52844D01*
X105747Y52844D01*
X105977Y52899D01*
X106195Y52990D01*
X106396Y53113D01*
X106576Y53267D01*
X106614Y53311D01*
X111649Y58346D01*
X111694Y58385D01*
X111847Y58564D01*
X111847Y58564D01*
X111971Y58765D01*
X112061Y58984D01*
X112116Y59213D01*
X112135Y59449D01*
X112130Y59507D01*
Y71257D01*
X112281Y71350D01*
X112616Y71636D01*
X112902Y71971D01*
X113132Y72347D01*
X113301Y72754D01*
X113316Y72815D01*
Y72815D01*
X113404Y73182D01*
X113430Y73622D01*
X113404Y74061D01*
X113301Y74490D01*
X113132Y74897D01*
X112902Y75273D01*
X112691Y75520D01*
G37*
G36*
X70808Y37720D02*X66931D01*
Y48425D01*
X67144D01*
X67572Y48463D01*
X67994Y48541D01*
X68408Y48657D01*
X68809Y48809D01*
X69195Y48998D01*
X69274Y49049D01*
X69343Y49111D01*
X69402Y49184D01*
X69448Y49265D01*
X69482Y49353D01*
X69501Y49444D01*
X69506Y49537D01*
X69496Y49630D01*
X69471Y49721D01*
X69433Y49806D01*
X69382Y49884D01*
X69319Y49954D01*
X69246Y50012D01*
X69165Y50059D01*
X69078Y50092D01*
X68986Y50112D01*
X68893Y50116D01*
X68800Y50106D01*
X68710Y50082D01*
X68625Y50042D01*
X68338Y49898D01*
X68037Y49783D01*
X67727Y49697D01*
X67410Y49638D01*
X67090Y49609D01*
X66931D01*
Y56689D01*
X67090D01*
X67410Y56660D01*
X67727Y56601D01*
X68037Y56515D01*
X68338Y56400D01*
X68627Y56259D01*
X68711Y56220D01*
X68801Y56195D01*
X68893Y56185D01*
X68986Y56190D01*
X69077Y56209D01*
X69164Y56242D01*
X69244Y56289D01*
X69317Y56347D01*
X69379Y56416D01*
X69430Y56494D01*
X69468Y56578D01*
X69492Y56668D01*
X69502Y56761D01*
X69497Y56853D01*
X69478Y56944D01*
X69445Y57031D01*
X69399Y57112D01*
X69341Y57184D01*
X69272Y57247D01*
X69193Y57296D01*
X68809Y57489D01*
X68408Y57641D01*
X67994Y57757D01*
X67572Y57835D01*
X67144Y57873D01*
X66931D01*
Y68096D01*
X67670Y68154D01*
X68393Y68328D01*
X69080Y68612D01*
X69715Y69001D01*
X70280Y69484D01*
X70763Y70049D01*
X70808Y70122D01*
Y55670D01*
X70725Y55702D01*
X70634Y55721D01*
X70541Y55726D01*
X70448Y55716D01*
X70357Y55691D01*
X70272Y55653D01*
X70194Y55602D01*
X70124Y55539D01*
X70066Y55466D01*
X70019Y55385D01*
X69986Y55298D01*
X69966Y55206D01*
X69962Y55113D01*
X69972Y55020D01*
X69996Y54930D01*
X70036Y54845D01*
X70180Y54558D01*
X70295Y54257D01*
X70381Y53947D01*
X70440Y53630D01*
X70469Y53310D01*
Y52988D01*
X70451Y52793D01*
X70440Y52668D01*
X70381Y52351D01*
X70295Y52041D01*
X70180Y51740D01*
X70039Y51451D01*
X70000Y51367D01*
X69975Y51277D01*
X69965Y51185D01*
X69970Y51092D01*
X69989Y51001D01*
X70022Y50914D01*
X70069Y50834D01*
X70127Y50761D01*
X70196Y50699D01*
X70274Y50648D01*
X70358Y50610D01*
X70448Y50586D01*
X70541Y50576D01*
X70633Y50581D01*
X70724Y50600D01*
X70808Y50631D01*
Y50407D01*
X69113Y48713D01*
X69053Y48662D01*
X68849Y48423D01*
X68684Y48154D01*
X68564Y47863D01*
X68491Y47557D01*
X68466Y47243D01*
X68472Y47165D01*
Y46852D01*
X68466Y46844D01*
X68200Y46533D01*
X67969Y46157D01*
X67801Y45750D01*
X67698Y45321D01*
X67663Y44882D01*
X67698Y44443D01*
X67801Y44014D01*
X67969Y43607D01*
X68200Y43231D01*
X68486Y42896D01*
X68821Y42610D01*
X69197Y42379D01*
X69604Y42211D01*
X70033Y42108D01*
X70472Y42073D01*
X70808Y42100D01*
Y37720D01*
G37*
G36*
X66931D02*X65582D01*
X62524Y40779D01*
Y51442D01*
X62589Y51269D01*
X62778Y50883D01*
X62829Y50804D01*
X62891Y50735D01*
X62964Y50676D01*
X63045Y50630D01*
X63133Y50596D01*
X63224Y50577D01*
X63317Y50572D01*
X63410Y50582D01*
X63501Y50607D01*
X63586Y50645D01*
X63664Y50696D01*
X63734Y50759D01*
X63792Y50832D01*
X63839Y50913D01*
X63872Y51000D01*
X63892Y51092D01*
X63896Y51185D01*
X63886Y51278D01*
X63862Y51368D01*
X63822Y51453D01*
X63678Y51740D01*
X63563Y52041D01*
X63477Y52351D01*
X63418Y52668D01*
X63389Y52988D01*
Y53310D01*
X63418Y53630D01*
X63477Y53947D01*
X63563Y54257D01*
X63678Y54558D01*
X63819Y54847D01*
X63858Y54931D01*
X63883Y55021D01*
X63893Y55113D01*
X63888Y55206D01*
X63869Y55297D01*
X63836Y55384D01*
X63789Y55464D01*
X63731Y55537D01*
X63662Y55599D01*
X63584Y55650D01*
X63500Y55688D01*
X63410Y55712D01*
X63317Y55722D01*
X63225Y55717D01*
X63134Y55698D01*
X63047Y55665D01*
X62966Y55619D01*
X62894Y55561D01*
X62831Y55492D01*
X62782Y55413D01*
X62589Y55029D01*
X62524Y54856D01*
Y67714D01*
X62674Y67806D01*
X63010Y68092D01*
X63296Y68428D01*
X63526Y68803D01*
X63695Y69211D01*
X63729Y69355D01*
X63773Y69318D01*
X64143Y69001D01*
X64778Y68612D01*
X65465Y68328D01*
X66188Y68154D01*
X66929Y68096D01*
X66931Y68096D01*
Y57873D01*
X66714D01*
X66286Y57835D01*
X65864Y57757D01*
X65450Y57641D01*
X65049Y57489D01*
X64663Y57300D01*
X64584Y57249D01*
X64515Y57187D01*
X64456Y57114D01*
X64410Y57033D01*
X64376Y56945D01*
X64357Y56854D01*
X64352Y56761D01*
X64362Y56668D01*
X64387Y56577D01*
X64425Y56492D01*
X64476Y56414D01*
X64539Y56344D01*
X64612Y56286D01*
X64693Y56239D01*
X64780Y56206D01*
X64872Y56186D01*
X64965Y56182D01*
X65058Y56192D01*
X65148Y56216D01*
X65233Y56256D01*
X65520Y56400D01*
X65821Y56515D01*
X66131Y56601D01*
X66448Y56660D01*
X66768Y56689D01*
X66931D01*
Y49609D01*
X66768D01*
X66448Y49638D01*
X66131Y49697D01*
X65821Y49783D01*
X65520Y49898D01*
X65231Y50039D01*
X65147Y50078D01*
X65057Y50103D01*
X64965Y50113D01*
X64872Y50108D01*
X64781Y50089D01*
X64694Y50056D01*
X64614Y50009D01*
X64541Y49951D01*
X64479Y49882D01*
X64428Y49804D01*
X64390Y49720D01*
X64366Y49630D01*
X64356Y49537D01*
X64361Y49445D01*
X64380Y49354D01*
X64413Y49267D01*
X64459Y49186D01*
X64517Y49114D01*
X64586Y49051D01*
X64665Y49002D01*
X65049Y48809D01*
X65450Y48657D01*
X65864Y48541D01*
X66286Y48463D01*
X66714Y48425D01*
X66931D01*
Y37720D01*
G37*
G36*
X70808Y31496D02*X55119D01*
Y43408D01*
X55550Y43429D01*
X55980Y43491D01*
X56401Y43595D01*
X56811Y43738D01*
X56917Y43791D01*
X57013Y43860D01*
X57098Y43943D01*
X57168Y44038D01*
X57223Y44144D01*
X57260Y44256D01*
X57280Y44373D01*
X57281Y44492D01*
X57263Y44609D01*
X57227Y44722D01*
X57174Y44828D01*
X57105Y44925D01*
X57022Y45009D01*
X56926Y45080D01*
X56821Y45134D01*
X56709Y45172D01*
X56592Y45191D01*
X56473Y45192D01*
X56356Y45174D01*
X56243Y45136D01*
X55972Y45037D01*
X55692Y44969D01*
X55406Y44927D01*
X55119Y44913D01*
Y50913D01*
X55406Y50899D01*
X55692Y50857D01*
X55972Y50789D01*
X56245Y50693D01*
X56356Y50655D01*
X56473Y50638D01*
X56591Y50638D01*
X56708Y50658D01*
X56820Y50695D01*
X56924Y50749D01*
X57019Y50819D01*
X57102Y50904D01*
X57171Y51000D01*
X57224Y51105D01*
X57260Y51218D01*
X57277Y51334D01*
X57276Y51452D01*
X57257Y51569D01*
X57220Y51681D01*
X57165Y51786D01*
X57095Y51881D01*
X57011Y51964D01*
X56915Y52032D01*
X56809Y52083D01*
X56401Y52231D01*
X55980Y52335D01*
X55550Y52397D01*
X55119Y52418D01*
Y53399D01*
X55823Y53455D01*
X56512Y53620D01*
X57166Y53891D01*
X57770Y54261D01*
X58309Y54721D01*
X58769Y55260D01*
X59139Y55864D01*
X59410Y56518D01*
X59459Y56724D01*
Y56724D01*
X59524Y56992D01*
Y48838D01*
X59459Y49099D01*
X59435Y49197D01*
X59292Y49607D01*
X59239Y49713D01*
X59170Y49809D01*
X59087Y49894D01*
X58992Y49964D01*
X58886Y50019D01*
X58774Y50056D01*
X58657Y50076D01*
X58538Y50077D01*
X58421Y50059D01*
X58308Y50023D01*
X58202Y49970D01*
X58105Y49901D01*
X58021Y49818D01*
X57950Y49722D01*
X57896Y49617D01*
X57858Y49505D01*
X57839Y49388D01*
X57838Y49269D01*
X57856Y49152D01*
X57894Y49039D01*
X57993Y48768D01*
X58061Y48488D01*
X58103Y48202D01*
X58117Y47913D01*
X58103Y47624D01*
X58061Y47338D01*
X57993Y47058D01*
X57897Y46785D01*
X57859Y46674D01*
X57842Y46557D01*
X57842Y46439D01*
X57862Y46322D01*
X57899Y46210D01*
X57953Y46106D01*
X58023Y46011D01*
X58108Y45928D01*
X58204Y45859D01*
X58309Y45806D01*
X58422Y45770D01*
X58538Y45753D01*
X58656Y45754D01*
X58773Y45773D01*
X58885Y45810D01*
X58990Y45865D01*
X59085Y45935D01*
X59168Y46019D01*
X59236Y46115D01*
X59287Y46221D01*
X59435Y46629D01*
X59459Y46727D01*
X59524Y46988D01*
Y40216D01*
X59519Y40157D01*
X59538Y39922D01*
X59593Y39692D01*
X59683Y39474D01*
X59806Y39273D01*
X59960Y39093D01*
X60005Y39055D01*
X63858Y35201D01*
X63897Y35156D01*
X64076Y35003D01*
X64278Y34880D01*
X64496Y34789D01*
X64725Y34734D01*
X64961Y34716D01*
X65019Y34720D01*
X70808D01*
Y31496D01*
G37*
G36*
X55119D02*X51504D01*
Y45762D01*
X51577Y45750D01*
X51696Y45749D01*
X51813Y45767D01*
X51926Y45803D01*
X52032Y45856D01*
X52129Y45925D01*
X52213Y46008D01*
X52284Y46104D01*
X52338Y46209D01*
X52376Y46321D01*
X52395Y46438D01*
X52396Y46557D01*
X52378Y46674D01*
X52340Y46787D01*
X52241Y47058D01*
X52173Y47338D01*
X52131Y47624D01*
X52117Y47913D01*
X52131Y48202D01*
X52173Y48488D01*
X52241Y48768D01*
X52337Y49041D01*
X52375Y49152D01*
X52392Y49269D01*
X52392Y49387D01*
X52372Y49504D01*
X52335Y49616D01*
X52281Y49720D01*
X52211Y49815D01*
X52126Y49898D01*
X52030Y49967D01*
X51925Y50020D01*
X51812Y50056D01*
X51696Y50073D01*
X51578Y50072D01*
X51504Y50060D01*
Y55215D01*
X51925Y54721D01*
X52464Y54261D01*
X53068Y53891D01*
X53722Y53620D01*
X54411Y53455D01*
X55117Y53399D01*
X55119Y53399D01*
Y52418D01*
X55117Y52418D01*
X54684Y52397D01*
X54254Y52335D01*
X53833Y52231D01*
X53423Y52088D01*
X53317Y52035D01*
X53221Y51966D01*
X53136Y51883D01*
X53066Y51788D01*
X53011Y51682D01*
X52974Y51570D01*
X52954Y51453D01*
X52953Y51334D01*
X52971Y51217D01*
X53007Y51104D01*
X53060Y50998D01*
X53129Y50901D01*
X53212Y50817D01*
X53308Y50746D01*
X53413Y50692D01*
X53525Y50654D01*
X53642Y50635D01*
X53761Y50634D01*
X53878Y50652D01*
X53991Y50690D01*
X54262Y50789D01*
X54542Y50857D01*
X54828Y50899D01*
X55117Y50913D01*
X55119Y50913D01*
Y44913D01*
X55117Y44913D01*
X54828Y44927D01*
X54542Y44969D01*
X54262Y45037D01*
X53989Y45133D01*
X53878Y45171D01*
X53761Y45188D01*
X53643Y45188D01*
X53526Y45168D01*
X53414Y45131D01*
X53310Y45077D01*
X53215Y45007D01*
X53132Y44922D01*
X53063Y44826D01*
X53010Y44721D01*
X52974Y44608D01*
X52957Y44492D01*
X52958Y44374D01*
X52977Y44257D01*
X53014Y44145D01*
X53069Y44040D01*
X53139Y43945D01*
X53223Y43862D01*
X53319Y43794D01*
X53425Y43743D01*
X53833Y43595D01*
X54254Y43491D01*
X54684Y43429D01*
X55117Y43408D01*
X55119Y43408D01*
Y31496D01*
G37*
G36*
X51504D02*X27161D01*
Y37811D01*
X27836Y37811D01*
X28108Y37877D01*
X28365Y37983D01*
X28542Y38092D01*
X28720Y37983D01*
X28977Y37877D01*
X29249Y37811D01*
X29526Y37795D01*
X43584Y37811D01*
X43856Y37877D01*
X44113Y37983D01*
X44351Y38129D01*
X44563Y38310D01*
X44744Y38522D01*
X44890Y38760D01*
X44996Y39017D01*
X45062Y39289D01*
X45078Y39566D01*
X45062Y47915D01*
X44996Y48187D01*
X44890Y48444D01*
X44744Y48682D01*
X44563Y48894D01*
X44351Y49075D01*
X44113Y49221D01*
X43856Y49327D01*
X43584Y49393D01*
X43306Y49409D01*
X29249Y49393D01*
X28977Y49327D01*
X28720Y49221D01*
X28542Y49112D01*
X28365Y49221D01*
X28108Y49327D01*
X27836Y49393D01*
X27558Y49409D01*
X27161Y49409D01*
Y52160D01*
X27164Y52159D01*
X27504Y52186D01*
X27835Y52266D01*
X28150Y52396D01*
X28440Y52574D01*
X28700Y52795D01*
X28921Y53055D01*
X29099Y53345D01*
X29229Y53660D01*
X29309Y53991D01*
X29329Y54331D01*
X29309Y54671D01*
X29229Y55002D01*
X29099Y55317D01*
X28921Y55607D01*
X28700Y55867D01*
X28440Y56088D01*
X28150Y56266D01*
X27835Y56396D01*
X27504Y56476D01*
X27164Y56503D01*
X27161Y56502D01*
Y69482D01*
X27164Y69481D01*
X27504Y69508D01*
X27835Y69588D01*
X28150Y69718D01*
X28440Y69896D01*
X28700Y70117D01*
X28921Y70377D01*
X29099Y70667D01*
X29229Y70982D01*
X29309Y71313D01*
X29329Y71653D01*
X29309Y71993D01*
X29229Y72324D01*
X29099Y72639D01*
X28921Y72929D01*
X28700Y73189D01*
X28440Y73410D01*
X28150Y73588D01*
X27835Y73718D01*
X27504Y73798D01*
X27164Y73825D01*
X27161Y73824D01*
Y76591D01*
X27836Y76591D01*
X28108Y76657D01*
X28365Y76763D01*
X28542Y76872D01*
X28720Y76763D01*
X28977Y76657D01*
X29249Y76591D01*
X29526Y76575D01*
X43584Y76591D01*
X43856Y76657D01*
X44113Y76763D01*
X44226Y76832D01*
X44176Y76782D01*
X44131Y76744D01*
X43978Y76564D01*
X43854Y76363D01*
X43764Y76145D01*
X43709Y75915D01*
X43709Y75915D01*
X43690Y75680D01*
X43695Y75621D01*
Y73864D01*
X41638Y71807D01*
X41554Y71859D01*
X41297Y71965D01*
X41025Y72031D01*
X40748Y72047D01*
X31611Y72031D01*
X31339Y71965D01*
X31082Y71859D01*
X30844Y71713D01*
X30632Y71532D01*
X30451Y71320D01*
X30305Y71082D01*
X30199Y70825D01*
X30133Y70553D01*
X30117Y70276D01*
X30133Y68029D01*
X30199Y67757D01*
X30215Y67716D01*
X30199Y67676D01*
X30133Y67404D01*
X30117Y67126D01*
X30133Y64880D01*
X30199Y64608D01*
X30216Y64567D01*
X30199Y64526D01*
X30133Y64254D01*
X30117Y63976D01*
X30133Y61730D01*
X30199Y61458D01*
X30216Y61417D01*
X30199Y61376D01*
X30133Y61104D01*
X30117Y60826D01*
X30133Y58580D01*
X30199Y58308D01*
X30215Y58267D01*
X30199Y58227D01*
X30133Y57955D01*
X30117Y57678D01*
X30133Y55431D01*
X30199Y55159D01*
X30305Y54902D01*
X30451Y54664D01*
X30632Y54452D01*
X30844Y54271D01*
X31082Y54125D01*
X31339Y54019D01*
X31611Y53953D01*
X31888Y53937D01*
X41025Y53953D01*
X41297Y54019D01*
X41554Y54125D01*
X41792Y54271D01*
X42004Y54452D01*
X42185Y54664D01*
X42331Y54902D01*
X42437Y55159D01*
X42503Y55431D01*
X42519Y55708D01*
X42503Y57955D01*
X42437Y58227D01*
X42421Y58267D01*
X42437Y58308D01*
X42503Y58580D01*
X42519Y58858D01*
X42503Y61104D01*
X42437Y61376D01*
X42420Y61417D01*
X42437Y61458D01*
X42446Y61492D01*
X42686D01*
X43977Y60201D01*
X44015Y60156D01*
X44195Y60003D01*
X44396Y59879D01*
X44614Y59789D01*
X44844Y59734D01*
X45079Y59715D01*
X45138Y59720D01*
X50995D01*
X50824Y59308D01*
X50659Y58619D01*
X50603Y57913D01*
X50659Y57207D01*
X50824Y56518D01*
X51095Y55864D01*
X51465Y55260D01*
X51504Y55215D01*
Y50060D01*
X51461Y50053D01*
X51349Y50016D01*
X51244Y49961D01*
X51149Y49891D01*
X51066Y49807D01*
X50998Y49711D01*
X50947Y49605D01*
X50799Y49197D01*
X50695Y48776D01*
X50633Y48346D01*
X50612Y47913D01*
X50633Y47480D01*
X50695Y47050D01*
X50799Y46629D01*
X50942Y46219D01*
X50995Y46113D01*
X51064Y46017D01*
X51147Y45932D01*
X51242Y45862D01*
X51348Y45807D01*
X51460Y45770D01*
X51504Y45762D01*
Y31496D01*
G37*
G36*
X27161Y49409D02*X21184Y49402D01*
Y76585D01*
X27161Y76591D01*
Y73824D01*
X26824Y73798D01*
X26493Y73718D01*
X26178Y73588D01*
X25888Y73410D01*
X25628Y73189D01*
X25407Y72929D01*
X25229Y72639D01*
X25099Y72324D01*
X25019Y71993D01*
X24992Y71653D01*
X25019Y71313D01*
X25099Y70982D01*
X25229Y70667D01*
X25407Y70377D01*
X25628Y70117D01*
X25888Y69896D01*
X26178Y69718D01*
X26493Y69588D01*
X26824Y69508D01*
X27161Y69482D01*
Y56502D01*
X26824Y56476D01*
X26493Y56396D01*
X26178Y56266D01*
X25888Y56088D01*
X25628Y55867D01*
X25407Y55607D01*
X25229Y55317D01*
X25099Y55002D01*
X25019Y54671D01*
X24992Y54331D01*
X25019Y53991D01*
X25099Y53660D01*
X25229Y53345D01*
X25407Y53055D01*
X25628Y52795D01*
X25888Y52574D01*
X26178Y52396D01*
X26493Y52266D01*
X26824Y52186D01*
X27161Y52160D01*
Y49409D01*
G37*
G36*
Y31496D02*X11417D01*
Y37839D01*
X11532Y37811D01*
X11810Y37795D01*
X27161Y37811D01*
Y31496D01*
G37*
G36*
X55119Y82406D02*X51882Y82399D01*
X51652Y82344D01*
X51434Y82254D01*
X51233Y82130D01*
X51053Y81977D01*
X50900Y81797D01*
X50776Y81596D01*
X50686Y81378D01*
X50631Y81148D01*
X50617Y80913D01*
X50622Y78466D01*
X49518D01*
X49204Y78447D01*
X48898Y78374D01*
X48862Y78359D01*
X46433D01*
X46374Y78364D01*
X46139Y78345D01*
X45909Y78290D01*
X45691Y78200D01*
X45490Y78076D01*
X45489Y78076D01*
X45310Y77923D01*
X45272Y77878D01*
X44821Y77427D01*
X44890Y77540D01*
X44996Y77797D01*
X45062Y78069D01*
X45078Y78346D01*
X45062Y86695D01*
X44996Y86967D01*
X44890Y87224D01*
X44744Y87462D01*
X44563Y87674D01*
X44351Y87855D01*
X44113Y88001D01*
X43856Y88107D01*
X43584Y88173D01*
X43306Y88189D01*
X29249Y88173D01*
X28977Y88107D01*
X28720Y88001D01*
X28542Y87892D01*
X28365Y88001D01*
X28108Y88107D01*
X27836Y88173D01*
X27558Y88189D01*
X11532Y88173D01*
X11417Y88145D01*
Y94488D01*
X55119D01*
Y82406D01*
G37*
G54D12*X60964Y75832D02*Y79168D01*
X60915Y79217D01*
X60964Y76908D02*X62487Y78431D01*
X60964Y78087D02*X61701Y78824D01*
X60964Y75832D02*X63563Y78431D01*
X63666D01*
X62143Y75729D02*X63666Y77252D01*
X60964Y75729D02*X62143D01*
X60964Y75832D02*Y76908D01*
Y75832D02*Y78087D01*
Y75832D02*X60129Y76667D01*
Y78824D01*
G54D13*X72047Y76771D02*X77165D01*
X77165Y76771D01*
X116929Y47638D02*X123228Y41338D01*
X131890D01*
G54D12*X135827D01*
G54D13*X144094Y37795D02*X139370D01*
X135827Y41338D01*
G54D12*X129134D02*X133071Y37401D01*
X139764D01*
X75197Y44882D02*Y46850D01*
G54D13*X70472Y44882D02*Y47243D01*
G54D12*X75197Y46850D02*X85827Y57480D01*
G54D13*X70472Y47243D02*X77165Y53936D01*
G54D12*X79921Y44882D02*Y47244D01*
X61024Y70078D02*Y40157D01*
X64961Y36220D01*
X75197D01*
X85827Y57480D02*X102362D01*
X107087Y62204D01*
X87008Y54330D02*X105512D01*
X110630Y59449D01*
G54D13*X113386Y79527D02*X116929Y75984D01*
X113386Y79527D02*X107874D01*
X104724Y76378D01*
Y68897D01*
G54D12*X110630Y59449D02*Y73622D01*
G54D13*X116929Y75984D02*Y47638D01*
X77165Y83464D02*Y53936D01*
X77165Y68897D02*X77165Y68898D01*
G54D12*X79921Y47244D02*X87008Y54330D01*
G54D13*X104724Y68897D02*X77165D01*
G54D12*X19684Y43602D02*Y35925D01*
X45471Y43602D02*X19684D01*
X36417Y49705D02*X36416D01*
X36417D02*Y37723D01*
X36318Y56693D02*X43208D01*
X19684Y82382D02*X36416D01*
X36417D02*X45668D01*
X19684D02*Y90650D01*
X36417Y89666D02*Y76280D01*
X36416D01*
X55070Y67960D02*X55117Y67913D01*
X50140Y68944D02*X51171Y67913D01*
X55117D01*
X19684Y82382D02*Y43602D01*
X36318Y66142D02*X42418D01*
X45220Y68944D01*
X36318Y62992D02*X43307D01*
G54D13*X36318Y69291D02*X41950D01*
X42051Y69392D02*X45195Y72536D01*
G54D12*X45220Y68944D02*X50140D01*
G54D13*X55117Y77913D02*X53670Y76466D01*
X49518D01*
G54D12*X48732Y72929D02*X49125Y73322D01*
X43307Y62992D02*X45079Y61220D01*
X51810D01*
X55117Y57913D01*
X49125Y73322D02*Y76073D01*
X46374Y76859D02*X49911D01*
X48732Y72929D02*X45981D01*
X44409Y71357D01*
X45195Y72143D02*Y75680D01*
X46374Y76859D01*
G54D14*X94488Y20669D03*
G54D15*Y44685D03*
G54D14*Y105315D03*
G54D15*Y81299D03*
G54D11*G36*
X52117Y80913D02*Y74913D01*
X58117D01*
Y80913D01*
X52117D01*
G37*
G54D16*X55117Y67913D03*
G54D17*X27164Y71653D03*
Y54331D03*
G54D16*X55117Y57913D03*
Y47913D03*
G54D18*X66929Y53149D03*
Y72835D03*
G54D11*G36*
X141094Y90795D02*Y84795D01*
X147094D01*
Y90795D01*
X141094D01*
G37*
G54D16*X144094Y77795D03*
Y67795D03*
Y57795D03*
Y47795D03*
Y37795D03*
G54D11*G36*
X120472Y56692D02*Y49606D01*
X127560D01*
Y56692D01*
X120472D01*
G37*
G54D18*X124016Y62992D03*
Y72835D03*
G54D19*X32873Y69291D02*X39763D01*
G54D20*X15845Y82382D02*X23523D01*
X33562D02*X39271D01*
G54D19*X32873Y66142D02*X39763D01*
X32873Y62992D02*X39763D01*
X32873Y59842D02*X39763D01*
X32873Y56693D02*X39763D01*
G54D20*X15845Y43602D02*X23523D01*
X33562D02*X39271D01*
G54D21*X75197Y36220D03*
Y44882D03*
X79921D03*
X104724Y68897D03*
X107087Y62204D03*
X77165Y83464D03*
X60964Y75832D03*
X72047Y76771D03*
X70472Y44882D03*
X61024Y70078D03*
X110630Y73622D03*
G54D13*G54D22*G54D23*G54D15*G54D22*G54D23*G54D15*G54D24*G54D23*G54D17*G54D24*G54D23*G54D25*G54D23*G54D24*G54D23*G54D24*G54D23*G54D25*M02*
