G04 start of page 18 for group -3984 idx -3984 *
G04 Title: (unknown), fab *
G04 Creator: pcb 20110918 *
G04 CreationDate: Mon 28 Oct 2013 08:12:09 PM GMT UTC *
G04 For: tszabo *
G04 Format: Gerber/RS-274X *
G04 PCB-Dimensions: 157480 125984 *
G04 PCB-Coordinate-Origin: lower left *
%MOIN*%
%FSLAX25Y25*%
%LNFAB*%
%ADD142C,0.0100*%
%ADD141C,0.0075*%
%ADD140C,0.0060*%
%ADD139R,0.0080X0.0080*%
G54D139*X94488Y84499D02*Y78099D01*
X91288Y81299D02*X97688D01*
X92888Y82899D02*X96088D01*
X92888D02*Y79699D01*
X96088D01*
Y82899D02*Y79699D01*
X94488Y47885D02*Y41485D01*
X91288Y44685D02*X97688D01*
X92888Y46285D02*X96088D01*
X92888D02*Y43085D01*
X96088D01*
Y46285D02*Y43085D01*
X15000Y140434D02*Y134034D01*
X11800Y137234D02*X18200D01*
X13400Y138834D02*X16600D01*
X13400D02*Y135634D01*
X16600D01*
Y138834D02*Y135634D01*
G54D140*X135000Y139484D02*X136500Y136484D01*
X138000Y139484D01*
X136500Y136484D02*Y133484D01*
X139800Y136784D02*X142050D01*
X139800Y133484D02*X142800D01*
X139800Y139484D02*Y133484D01*
Y139484D02*X142800D01*
X147600D02*X148350Y138734D01*
X145350Y139484D02*X147600D01*
X144600Y138734D02*X145350Y139484D01*
X144600Y138734D02*Y137234D01*
X145350Y136484D01*
X147600D01*
X148350Y135734D01*
Y134234D01*
X147600Y133484D02*X148350Y134234D01*
X145350Y133484D02*X147600D01*
X144600Y134234D02*X145350Y133484D01*
X98000Y138734D02*X98750Y139484D01*
X101000D01*
X101750Y138734D01*
Y137234D01*
X98000Y133484D02*X101750Y137234D01*
X98000Y133484D02*X101750D01*
X45000Y134234D02*X45750Y133484D01*
X45000Y138734D02*Y134234D01*
Y138734D02*X45750Y139484D01*
X47250D01*
X48000Y138734D01*
Y134234D01*
X47250Y133484D02*X48000Y134234D01*
X45750Y133484D02*X47250D01*
X45000Y134984D02*X48000Y137984D01*
X49800Y133484D02*X50550D01*
X52350Y138284D02*X53550Y139484D01*
Y133484D01*
X52350D02*X54600D01*
X56400Y134234D02*X57150Y133484D01*
X56400Y138734D02*Y134234D01*
Y138734D02*X57150Y139484D01*
X58650D01*
X59400Y138734D01*
Y134234D01*
X58650Y133484D02*X59400Y134234D01*
X57150Y133484D02*X58650D01*
X56400Y134984D02*X59400Y137984D01*
X61200Y138734D02*X61950Y139484D01*
X63450D01*
X64200Y138734D01*
X63450Y133484D02*X64200Y134234D01*
X61950Y133484D02*X63450D01*
X61200Y134234D02*X61950Y133484D01*
Y136784D02*X63450D01*
X64200Y138734D02*Y137534D01*
Y136034D02*Y134234D01*
Y136034D02*X63450Y136784D01*
X64200Y137534D02*X63450Y136784D01*
X94488Y20669D02*Y17469D01*
Y20669D02*X97261Y22269D01*
X94488Y20669D02*X91715Y22269D01*
X92888Y20669D02*G75*G03X96088Y20669I1600J0D01*G01*
G75*G03X92888Y20669I-1600J0D01*G01*
X94488Y105315D02*Y102115D01*
Y105315D02*X97261Y106915D01*
X94488Y105315D02*X91715Y106915D01*
X92888Y105315D02*G75*G03X96088Y105315I1600J0D01*G01*
G75*G03X92888Y105315I-1600J0D01*G01*
X15000Y152234D02*Y149034D01*
Y152234D02*X17773Y153834D01*
X15000Y152234D02*X12227Y153834D01*
X13400Y152234D02*G75*G03X16600Y152234I1600J0D01*G01*
G75*G03X13400Y152234I-1600J0D01*G01*
X135000Y154484D02*X136500Y151484D01*
X138000Y154484D01*
X136500Y151484D02*Y148484D01*
X139800Y151784D02*X142050D01*
X139800Y148484D02*X142800D01*
X139800Y154484D02*Y148484D01*
Y154484D02*X142800D01*
X147600D02*X148350Y153734D01*
X145350Y154484D02*X147600D01*
X144600Y153734D02*X145350Y154484D01*
X144600Y153734D02*Y152234D01*
X145350Y151484D01*
X147600D01*
X148350Y150734D01*
Y149234D01*
X147600Y148484D02*X148350Y149234D01*
X145350Y148484D02*X147600D01*
X144600Y149234D02*X145350Y148484D01*
X98000Y153734D02*X98750Y154484D01*
X101000D01*
X101750Y153734D01*
Y152234D01*
X98000Y148484D02*X101750Y152234D01*
X98000Y148484D02*X101750D01*
X45000Y149234D02*X45750Y148484D01*
X45000Y153734D02*Y149234D01*
Y153734D02*X45750Y154484D01*
X47250D01*
X48000Y153734D01*
Y149234D01*
X47250Y148484D02*X48000Y149234D01*
X45750Y148484D02*X47250D01*
X45000Y149984D02*X48000Y152984D01*
X49800Y148484D02*X50550D01*
X52350Y149234D02*X53100Y148484D01*
X52350Y153734D02*Y149234D01*
Y153734D02*X53100Y154484D01*
X54600D01*
X55350Y153734D01*
Y149234D01*
X54600Y148484D02*X55350Y149234D01*
X53100Y148484D02*X54600D01*
X52350Y149984D02*X55350Y152984D01*
X57900Y148484D02*X60150Y151484D01*
Y153734D02*Y151484D01*
X59400Y154484D02*X60150Y153734D01*
X57900Y154484D02*X59400D01*
X57150Y153734D02*X57900Y154484D01*
X57150Y153734D02*Y152234D01*
X57900Y151484D01*
X60150D01*
X61950Y150734D02*X64950Y154484D01*
X61950Y150734D02*X65700D01*
X64950Y154484D02*Y148484D01*
X122416Y54749D02*X125616D01*
X122416D02*Y51549D01*
X125616D01*
Y54749D02*Y51549D01*
X122416Y64592D02*X125616D01*
X122416D02*Y61392D01*
X125616D01*
Y64592D02*Y61392D01*
X122416Y74435D02*X125616D01*
X122416D02*Y71235D01*
X125616D01*
Y74435D02*Y71235D01*
X65329Y54749D02*X68529D01*
X65329D02*Y51549D01*
X68529D01*
Y54749D02*Y51549D01*
X65329Y74435D02*X68529D01*
X65329D02*Y71235D01*
X68529D01*
Y74435D02*Y71235D01*
X13400Y168834D02*X16600D01*
X13400D02*Y165634D01*
X16600D01*
Y168834D02*Y165634D01*
X135000Y169484D02*X136500Y166484D01*
X138000Y169484D01*
X136500Y166484D02*Y163484D01*
X139800Y166784D02*X142050D01*
X139800Y163484D02*X142800D01*
X139800Y169484D02*Y163484D01*
Y169484D02*X142800D01*
X147600D02*X148350Y168734D01*
X145350Y169484D02*X147600D01*
X144600Y168734D02*X145350Y169484D01*
X144600Y168734D02*Y167234D01*
X145350Y166484D01*
X147600D01*
X148350Y165734D01*
Y164234D01*
X147600Y163484D02*X148350Y164234D01*
X145350Y163484D02*X147600D01*
X144600Y164234D02*X145350Y163484D01*
X98000Y169484D02*X101000D01*
X98000D02*Y166484D01*
X98750Y167234D01*
X100250D01*
X101000Y166484D01*
Y164234D01*
X100250Y163484D02*X101000Y164234D01*
X98750Y163484D02*X100250D01*
X98000Y164234D02*X98750Y163484D01*
X45000Y164234D02*X45750Y163484D01*
X45000Y168734D02*Y164234D01*
Y168734D02*X45750Y169484D01*
X47250D01*
X48000Y168734D01*
Y164234D01*
X47250Y163484D02*X48000Y164234D01*
X45750Y163484D02*X47250D01*
X45000Y164984D02*X48000Y167984D01*
X49800Y163484D02*X50550D01*
X52350Y164234D02*X53100Y163484D01*
X52350Y168734D02*Y164234D01*
Y168734D02*X53100Y169484D01*
X54600D01*
X55350Y168734D01*
Y164234D01*
X54600Y163484D02*X55350Y164234D01*
X53100Y163484D02*X54600D01*
X52350Y164984D02*X55350Y167984D01*
X57150Y168734D02*X57900Y169484D01*
X59400D01*
X60150Y168734D01*
X59400Y163484D02*X60150Y164234D01*
X57900Y163484D02*X59400D01*
X57150Y164234D02*X57900Y163484D01*
Y166784D02*X59400D01*
X60150Y168734D02*Y167534D01*
Y166034D02*Y164234D01*
Y166034D02*X59400Y166784D01*
X60150Y167534D02*X59400Y166784D01*
X62700Y163484D02*X64950Y166484D01*
Y168734D02*Y166484D01*
X64200Y169484D02*X64950Y168734D01*
X62700Y169484D02*X64200D01*
X61950Y168734D02*X62700Y169484D01*
X61950Y168734D02*Y167234D01*
X62700Y166484D01*
X64950D01*
X54317Y77913D02*G75*G03X55917Y77913I800J0D01*G01*
G75*G03X54317Y77913I-800J0D01*G01*
Y67913D02*G75*G03X55917Y67913I800J0D01*G01*
G75*G03X54317Y67913I-800J0D01*G01*
Y57913D02*G75*G03X55917Y57913I800J0D01*G01*
G75*G03X54317Y57913I-800J0D01*G01*
Y47913D02*G75*G03X55917Y47913I800J0D01*G01*
G75*G03X54317Y47913I-800J0D01*G01*
X143294Y87795D02*G75*G03X144894Y87795I800J0D01*G01*
G75*G03X143294Y87795I-800J0D01*G01*
Y77795D02*G75*G03X144894Y77795I800J0D01*G01*
G75*G03X143294Y77795I-800J0D01*G01*
Y67795D02*G75*G03X144894Y67795I800J0D01*G01*
G75*G03X143294Y67795I-800J0D01*G01*
Y57795D02*G75*G03X144894Y57795I800J0D01*G01*
G75*G03X143294Y57795I-800J0D01*G01*
Y47795D02*G75*G03X144894Y47795I800J0D01*G01*
G75*G03X143294Y47795I-800J0D01*G01*
Y37795D02*G75*G03X144894Y37795I800J0D01*G01*
G75*G03X143294Y37795I-800J0D01*G01*
X14200Y182234D02*G75*G03X15800Y182234I800J0D01*G01*
G75*G03X14200Y182234I-800J0D01*G01*
X135000Y184484D02*X136500Y181484D01*
X138000Y184484D01*
X136500Y181484D02*Y178484D01*
X139800Y181784D02*X142050D01*
X139800Y178484D02*X142800D01*
X139800Y184484D02*Y178484D01*
Y184484D02*X142800D01*
X147600D02*X148350Y183734D01*
X145350Y184484D02*X147600D01*
X144600Y183734D02*X145350Y184484D01*
X144600Y183734D02*Y182234D01*
X145350Y181484D01*
X147600D01*
X148350Y180734D01*
Y179234D01*
X147600Y178484D02*X148350Y179234D01*
X145350Y178484D02*X147600D01*
X144600Y179234D02*X145350Y178484D01*
X98000Y183284D02*X99200Y184484D01*
Y178484D01*
X98000D02*X100250D01*
X102050Y179234D02*X102800Y178484D01*
X102050Y183734D02*Y179234D01*
Y183734D02*X102800Y184484D01*
X104300D01*
X105050Y183734D01*
Y179234D01*
X104300Y178484D02*X105050Y179234D01*
X102800Y178484D02*X104300D01*
X102050Y179984D02*X105050Y182984D01*
X45000Y179234D02*X45750Y178484D01*
X45000Y183734D02*Y179234D01*
Y183734D02*X45750Y184484D01*
X47250D01*
X48000Y183734D01*
Y179234D01*
X47250Y178484D02*X48000Y179234D01*
X45750Y178484D02*X47250D01*
X45000Y179984D02*X48000Y182984D01*
X49800Y178484D02*X50550D01*
X52350Y179234D02*X53100Y178484D01*
X52350Y183734D02*Y179234D01*
Y183734D02*X53100Y184484D01*
X54600D01*
X55350Y183734D01*
Y179234D01*
X54600Y178484D02*X55350Y179234D01*
X53100Y178484D02*X54600D01*
X52350Y179984D02*X55350Y182984D01*
X57150Y183734D02*X57900Y184484D01*
X59400D01*
X60150Y183734D01*
X59400Y178484D02*X60150Y179234D01*
X57900Y178484D02*X59400D01*
X57150Y179234D02*X57900Y178484D01*
Y181784D02*X59400D01*
X60150Y183734D02*Y182534D01*
Y181034D02*Y179234D01*
Y181034D02*X59400Y181784D01*
X60150Y182534D02*X59400Y181784D01*
X61950Y179234D02*X62700Y178484D01*
X61950Y180434D02*Y179234D01*
Y180434D02*X63000Y181484D01*
X63900D01*
X64950Y180434D01*
Y179234D01*
X64200Y178484D02*X64950Y179234D01*
X62700Y178484D02*X64200D01*
X61950Y182534D02*X63000Y181484D01*
X61950Y183734D02*Y182534D01*
Y183734D02*X62700Y184484D01*
X64200D01*
X64950Y183734D01*
Y182534D01*
X63900Y181484D02*X64950Y182534D01*
X25964Y72853D02*X28364Y70453D01*
X25964D02*X28364Y72853D01*
X25964Y55531D02*X28364Y53131D01*
X25964D02*X28364Y55531D01*
X13800Y198434D02*X16200Y196034D01*
X13800D02*X16200Y198434D01*
X135000Y199484D02*X136500Y196484D01*
X138000Y199484D01*
X136500Y196484D02*Y193484D01*
X139800Y196784D02*X142050D01*
X139800Y193484D02*X142800D01*
X139800Y199484D02*Y193484D01*
Y199484D02*X142800D01*
X147600D02*X148350Y198734D01*
X145350Y199484D02*X147600D01*
X144600Y198734D02*X145350Y199484D01*
X144600Y198734D02*Y197234D01*
X145350Y196484D01*
X147600D01*
X148350Y195734D01*
Y194234D01*
X147600Y193484D02*X148350Y194234D01*
X145350Y193484D02*X147600D01*
X144600Y194234D02*X145350Y193484D01*
X98000Y198734D02*X98750Y199484D01*
X101000D01*
X101750Y198734D01*
Y197234D01*
X98000Y193484D02*X101750Y197234D01*
X98000Y193484D02*X101750D01*
X45000Y194234D02*X45750Y193484D01*
X45000Y198734D02*Y194234D01*
Y198734D02*X45750Y199484D01*
X47250D01*
X48000Y198734D01*
Y194234D01*
X47250Y193484D02*X48000Y194234D01*
X45750Y193484D02*X47250D01*
X45000Y194984D02*X48000Y197984D01*
X49800Y193484D02*X50550D01*
X52350Y194234D02*X53100Y193484D01*
X52350Y198734D02*Y194234D01*
Y198734D02*X53100Y199484D01*
X54600D01*
X55350Y198734D01*
Y194234D01*
X54600Y193484D02*X55350Y194234D01*
X53100Y193484D02*X54600D01*
X52350Y194984D02*X55350Y197984D01*
X57150Y198734D02*X57900Y199484D01*
X59400D01*
X60150Y198734D01*
X59400Y193484D02*X60150Y194234D01*
X57900Y193484D02*X59400D01*
X57150Y194234D02*X57900Y193484D01*
Y196784D02*X59400D01*
X60150Y198734D02*Y197534D01*
Y196034D02*Y194234D01*
Y196034D02*X59400Y196784D01*
X60150Y197534D02*X59400Y196784D01*
X61950Y199484D02*X64950D01*
X61950D02*Y196484D01*
X62700Y197234D01*
X64200D01*
X64950Y196484D01*
Y194234D01*
X64200Y193484D02*X64950Y194234D01*
X62700Y193484D02*X64200D01*
X61950Y194234D02*X62700Y193484D01*
X47244Y90544D02*Y88944D01*
Y90544D02*X48631Y91344D01*
X47244Y90544D02*X45857Y91344D01*
X47244Y86608D02*Y85008D01*
Y86608D02*X48631Y87408D01*
X47244Y86608D02*X45857Y87408D01*
X47244Y82672D02*Y81072D01*
Y82672D02*X48631Y83472D01*
X47244Y82672D02*X45857Y83472D01*
X47244Y78736D02*Y77136D01*
Y78736D02*X48631Y79536D01*
X47244Y78736D02*X45857Y79536D01*
X47244Y74800D02*Y73200D01*
Y74800D02*X48631Y75600D01*
X47244Y74800D02*X45857Y75600D01*
X47244Y70864D02*Y69264D01*
Y70864D02*X48631Y71664D01*
X47244Y70864D02*X45857Y71664D01*
X47244Y66928D02*Y65328D01*
Y66928D02*X48631Y67728D01*
X47244Y66928D02*X45857Y67728D01*
X47244Y35440D02*Y33840D01*
Y35440D02*X48631Y36240D01*
X47244Y35440D02*X45857Y36240D01*
X47244Y39376D02*Y37776D01*
Y39376D02*X48631Y40176D01*
X47244Y39376D02*X45857Y40176D01*
X47244Y43312D02*Y41712D01*
Y43312D02*X48631Y44112D01*
X47244Y43312D02*X45857Y44112D01*
X47244Y47248D02*Y45648D01*
Y47248D02*X48631Y48048D01*
X47244Y47248D02*X45857Y48048D01*
X47244Y51184D02*Y49584D01*
Y51184D02*X48631Y51984D01*
X47244Y51184D02*X45857Y51984D01*
X47244Y55120D02*Y53520D01*
Y55120D02*X48631Y55920D01*
X47244Y55120D02*X45857Y55920D01*
X47244Y59056D02*Y57456D01*
Y59056D02*X48631Y59856D01*
X47244Y59056D02*X45857Y59856D01*
X47244Y62992D02*Y61392D01*
Y62992D02*X48631Y63792D01*
X47244Y62992D02*X45857Y63792D01*
X134252Y39376D02*Y37776D01*
Y39376D02*X135639Y40176D01*
X134252Y39376D02*X132865Y40176D01*
X134252Y90544D02*Y88944D01*
Y90544D02*X135639Y91344D01*
X134252Y90544D02*X132865Y91344D01*
X134252Y86608D02*Y85008D01*
Y86608D02*X135639Y87408D01*
X134252Y86608D02*X132865Y87408D01*
X134252Y82672D02*Y81072D01*
Y82672D02*X135639Y83472D01*
X134252Y82672D02*X132865Y83472D01*
X134252Y78736D02*Y77136D01*
Y78736D02*X135639Y79536D01*
X134252Y78736D02*X132865Y79536D01*
X134252Y74800D02*Y73200D01*
Y74800D02*X135639Y75600D01*
X134252Y74800D02*X132865Y75600D01*
X134252Y70864D02*Y69264D01*
Y70864D02*X135639Y71664D01*
X134252Y70864D02*X132865Y71664D01*
X134252Y66928D02*Y65328D01*
Y66928D02*X135639Y67728D01*
X134252Y66928D02*X132865Y67728D01*
X134252Y35440D02*Y33840D01*
Y35440D02*X135639Y36240D01*
X134252Y35440D02*X132865Y36240D01*
X134252Y43312D02*Y41712D01*
Y43312D02*X135639Y44112D01*
X134252Y43312D02*X132865Y44112D01*
X134252Y47248D02*Y45648D01*
Y47248D02*X135639Y48048D01*
X134252Y47248D02*X132865Y48048D01*
X134252Y51184D02*Y49584D01*
Y51184D02*X135639Y51984D01*
X134252Y51184D02*X132865Y51984D01*
X134252Y55120D02*Y53520D01*
Y55120D02*X135639Y55920D01*
X134252Y55120D02*X132865Y55920D01*
X134252Y59056D02*Y57456D01*
Y59056D02*X135639Y59856D01*
X134252Y59056D02*X132865Y59856D01*
X134252Y62992D02*Y61392D01*
Y62992D02*X135639Y63792D01*
X134252Y62992D02*X132865Y63792D01*
X94485Y92913D02*Y91313D01*
Y92913D02*X95872Y93713D01*
X94485Y92913D02*X93098Y93713D01*
X90549Y92913D02*Y91313D01*
Y92913D02*X91936Y93713D01*
X90549Y92913D02*X89162Y93713D01*
X86613Y92913D02*Y91313D01*
Y92913D02*X88000Y93713D01*
X86613Y92913D02*X85226Y93713D01*
X82677Y92913D02*Y91313D01*
Y92913D02*X84064Y93713D01*
X82677Y92913D02*X81290Y93713D01*
X98421Y92913D02*Y91313D01*
Y92913D02*X99808Y93713D01*
X98421Y92913D02*X97034Y93713D01*
X102357Y92913D02*Y91313D01*
Y92913D02*X103744Y93713D01*
X102357Y92913D02*X100970Y93713D01*
X106293Y92913D02*Y91313D01*
Y92913D02*X107680Y93713D01*
X106293Y92913D02*X104906Y93713D01*
X94485Y33464D02*Y31864D01*
Y33464D02*X95872Y34264D01*
X94485Y33464D02*X93098Y34264D01*
X90549Y33464D02*Y31864D01*
Y33464D02*X91936Y34264D01*
X90549Y33464D02*X89162Y34264D01*
X86613Y33464D02*Y31864D01*
Y33464D02*X88000Y34264D01*
X86613Y33464D02*X85226Y34264D01*
X82677Y33464D02*Y31864D01*
Y33464D02*X84064Y34264D01*
X82677Y33464D02*X81290Y34264D01*
X98421Y33464D02*Y31864D01*
Y33464D02*X99808Y34264D01*
X98421Y33464D02*X97034Y34264D01*
X102357Y33464D02*Y31864D01*
Y33464D02*X103744Y34264D01*
X102357Y33464D02*X100970Y34264D01*
X106293Y33464D02*Y31864D01*
Y33464D02*X107680Y34264D01*
X106293Y33464D02*X104906Y34264D01*
X77165Y85064D02*Y81864D01*
X75565Y83464D02*X78765D01*
X61024Y71678D02*Y68478D01*
X59424Y70078D02*X62624D01*
X75197Y37820D02*Y34620D01*
X73597Y36220D02*X76797D01*
X75197Y46482D02*Y43282D01*
X73597Y44882D02*X76797D01*
X110630Y75222D02*Y72022D01*
X109030Y73622D02*X112230D01*
X104724Y70497D02*Y67297D01*
X103124Y68897D02*X106324D01*
X107087Y63804D02*Y60604D01*
X105487Y62204D02*X108687D01*
X60964Y77432D02*Y74232D01*
X59364Y75832D02*X62564D01*
X72047Y78371D02*Y75171D01*
X70447Y76771D02*X73647D01*
X70472Y46482D02*Y43282D01*
X68872Y44882D02*X72072D01*
X79921Y46482D02*Y43282D01*
X78321Y44882D02*X81521D01*
X15000Y213834D02*Y210634D01*
X13400Y212234D02*X16600D01*
X135000Y214484D02*X136500Y211484D01*
X138000Y214484D01*
X136500Y211484D02*Y208484D01*
X139800Y211784D02*X142050D01*
X139800Y208484D02*X142800D01*
X139800Y214484D02*Y208484D01*
Y214484D02*X142800D01*
X147600D02*X148350Y213734D01*
X145350Y214484D02*X147600D01*
X144600Y213734D02*X145350Y214484D01*
X144600Y213734D02*Y212234D01*
X145350Y211484D01*
X147600D01*
X148350Y210734D01*
Y209234D01*
X147600Y208484D02*X148350Y209234D01*
X145350Y208484D02*X147600D01*
X144600Y209234D02*X145350Y208484D01*
X98000Y213284D02*X99200Y214484D01*
Y208484D01*
X98000D02*X100250D01*
X102050Y213284D02*X103250Y214484D01*
Y208484D01*
X102050D02*X104300D01*
X15000Y227234D02*Y225634D01*
Y227234D02*X16387Y228034D01*
X15000Y227234D02*X13613Y228034D01*
X140000Y229484D02*Y223484D01*
Y229484D02*X143750Y223484D01*
Y229484D02*Y223484D01*
X145550Y228734D02*Y224234D01*
Y228734D02*X146300Y229484D01*
X147800D01*
X148550Y228734D01*
Y224234D01*
X147800Y223484D02*X148550Y224234D01*
X146300Y223484D02*X147800D01*
X145550Y224234D02*X146300Y223484D01*
X98000Y225734D02*X101000Y229484D01*
X98000Y225734D02*X101750D01*
X101000Y229484D02*Y223484D01*
X103550Y225734D02*X106550Y229484D01*
X103550Y225734D02*X107300D01*
X106550Y229484D02*Y223484D01*
X45000Y224234D02*X45750Y223484D01*
X45000Y228734D02*Y224234D01*
Y228734D02*X45750Y229484D01*
X47250D01*
X48000Y228734D01*
Y224234D01*
X47250Y223484D02*X48000Y224234D01*
X45750Y223484D02*X47250D01*
X45000Y224984D02*X48000Y227984D01*
X49800Y223484D02*X50550D01*
X52350Y224234D02*X53100Y223484D01*
X52350Y228734D02*Y224234D01*
Y228734D02*X53100Y229484D01*
X54600D01*
X55350Y228734D01*
Y224234D01*
X54600Y223484D02*X55350Y224234D01*
X53100Y223484D02*X54600D01*
X52350Y224984D02*X55350Y227984D01*
X57150Y228734D02*X57900Y229484D01*
X60150D01*
X60900Y228734D01*
Y227234D01*
X57150Y223484D02*X60900Y227234D01*
X57150Y223484D02*X60900D01*
X62700Y224234D02*X63450Y223484D01*
X62700Y228734D02*Y224234D01*
Y228734D02*X63450Y229484D01*
X64950D01*
X65700Y228734D01*
Y224234D01*
X64950Y223484D02*X65700Y224234D01*
X63450Y223484D02*X64950D01*
X62700Y224984D02*X65700Y227984D01*
X45000Y209234D02*X45750Y208484D01*
X45000Y213734D02*Y209234D01*
Y213734D02*X45750Y214484D01*
X47250D01*
X48000Y213734D01*
Y209234D01*
X47250Y208484D02*X48000Y209234D01*
X45750Y208484D02*X47250D01*
X45000Y209984D02*X48000Y212984D01*
X49800Y208484D02*X50550D01*
X52350Y209234D02*X53100Y208484D01*
X52350Y213734D02*Y209234D01*
Y213734D02*X53100Y214484D01*
X54600D01*
X55350Y213734D01*
Y209234D01*
X54600Y208484D02*X55350Y209234D01*
X53100Y208484D02*X54600D01*
X52350Y209984D02*X55350Y212984D01*
X57150Y213734D02*X57900Y214484D01*
X60150D01*
X60900Y213734D01*
Y212234D01*
X57150Y208484D02*X60900Y212234D01*
X57150Y208484D02*X60900D01*
X62700Y209234D02*X63450Y208484D01*
X62700Y213734D02*Y209234D01*
Y213734D02*X63450Y214484D01*
X64950D01*
X65700Y213734D01*
Y209234D01*
X64950Y208484D02*X65700Y209234D01*
X63450Y208484D02*X64950D01*
X62700Y209984D02*X65700Y212984D01*
X3000Y244484D02*X3750Y243734D01*
X750Y244484D02*X3000D01*
X0Y243734D02*X750Y244484D01*
X0Y243734D02*Y242234D01*
X750Y241484D01*
X3000D01*
X3750Y240734D01*
Y239234D01*
X3000Y238484D02*X3750Y239234D01*
X750Y238484D02*X3000D01*
X0Y239234D02*X750Y238484D01*
X5550Y241484D02*Y239234D01*
X6300Y238484D01*
X8550Y241484D02*Y236984D01*
X7800Y236234D02*X8550Y236984D01*
X6300Y236234D02*X7800D01*
X5550Y236984D02*X6300Y236234D01*
Y238484D02*X7800D01*
X8550Y239234D01*
X11100Y240734D02*Y238484D01*
Y240734D02*X11850Y241484D01*
X12600D01*
X13350Y240734D01*
Y238484D01*
Y240734D02*X14100Y241484D01*
X14850D01*
X15600Y240734D01*
Y238484D01*
X10350Y241484D02*X11100Y240734D01*
X17400Y244484D02*Y238484D01*
Y239234D02*X18150Y238484D01*
X19650D01*
X20400Y239234D01*
Y240734D02*Y239234D01*
X19650Y241484D02*X20400Y240734D01*
X18150Y241484D02*X19650D01*
X17400Y240734D02*X18150Y241484D01*
X22200Y240734D02*Y239234D01*
Y240734D02*X22950Y241484D01*
X24450D01*
X25200Y240734D01*
Y239234D01*
X24450Y238484D02*X25200Y239234D01*
X22950Y238484D02*X24450D01*
X22200Y239234D02*X22950Y238484D01*
X27000Y244484D02*Y239234D01*
X27750Y238484D01*
X0Y235234D02*X29250D01*
X41750Y244484D02*Y238484D01*
X43700Y244484D02*X44750Y243434D01*
Y239534D01*
X43700Y238484D02*X44750Y239534D01*
X41000Y238484D02*X43700D01*
X41000Y244484D02*X43700D01*
G54D141*X46550Y242984D02*Y242834D01*
G54D140*Y240734D02*Y238484D01*
X50300Y241484D02*X51050Y240734D01*
X48800Y241484D02*X50300D01*
X48050Y240734D02*X48800Y241484D01*
X48050Y240734D02*Y239234D01*
X48800Y238484D01*
X51050Y241484D02*Y239234D01*
X51800Y238484D01*
X48800D02*X50300D01*
X51050Y239234D01*
X54350Y240734D02*Y238484D01*
Y240734D02*X55100Y241484D01*
X55850D01*
X56600Y240734D01*
Y238484D01*
Y240734D02*X57350Y241484D01*
X58100D01*
X58850Y240734D01*
Y238484D01*
X53600Y241484D02*X54350Y240734D01*
X60650Y238484D02*X61400D01*
X65900Y239234D02*X66650Y238484D01*
X65900Y243734D02*X66650Y244484D01*
X65900Y243734D02*Y239234D01*
X68450Y244484D02*X69950D01*
X69200D02*Y238484D01*
X68450D02*X69950D01*
X72500Y240734D02*Y238484D01*
Y240734D02*X73250Y241484D01*
X74000D01*
X74750Y240734D01*
Y238484D01*
X71750Y241484D02*X72500Y240734D01*
X77300Y241484D02*X79550D01*
X76550Y240734D02*X77300Y241484D01*
X76550Y240734D02*Y239234D01*
X77300Y238484D01*
X79550D01*
X81350Y244484D02*Y238484D01*
Y240734D02*X82100Y241484D01*
X83600D01*
X84350Y240734D01*
Y238484D01*
X86150Y244484D02*X86900Y243734D01*
Y239234D01*
X86150Y238484D02*X86900Y239234D01*
X41000Y235234D02*X88700D01*
X96050Y238484D02*X98000D01*
X95000Y239534D02*X96050Y238484D01*
X95000Y243434D02*Y239534D01*
Y243434D02*X96050Y244484D01*
X98000D01*
X99800Y240734D02*Y239234D01*
Y240734D02*X100550Y241484D01*
X102050D01*
X102800Y240734D01*
Y239234D01*
X102050Y238484D02*X102800Y239234D01*
X100550Y238484D02*X102050D01*
X99800Y239234D02*X100550Y238484D01*
X104600Y241484D02*Y239234D01*
X105350Y238484D01*
X106850D01*
X107600Y239234D01*
Y241484D02*Y239234D01*
X110150Y240734D02*Y238484D01*
Y240734D02*X110900Y241484D01*
X111650D01*
X112400Y240734D01*
Y238484D01*
X109400Y241484D02*X110150Y240734D01*
X114950Y244484D02*Y239234D01*
X115700Y238484D01*
X114200Y242234D02*X115700D01*
X95000Y235234D02*X117200D01*
X130750Y244484D02*Y238484D01*
X130000Y244484D02*X133000D01*
X133750Y243734D01*
Y242234D01*
X133000Y241484D02*X133750Y242234D01*
X130750Y241484D02*X133000D01*
X135550Y244484D02*Y239234D01*
X136300Y238484D01*
X140050Y241484D02*X140800Y240734D01*
X138550Y241484D02*X140050D01*
X137800Y240734D02*X138550Y241484D01*
X137800Y240734D02*Y239234D01*
X138550Y238484D01*
X140800Y241484D02*Y239234D01*
X141550Y238484D01*
X138550D02*X140050D01*
X140800Y239234D01*
X144100Y244484D02*Y239234D01*
X144850Y238484D01*
X143350Y242234D02*X144850D01*
X147100Y238484D02*X149350D01*
X146350Y239234D02*X147100Y238484D01*
X146350Y240734D02*Y239234D01*
Y240734D02*X147100Y241484D01*
X148600D01*
X149350Y240734D01*
X146350Y239984D02*X149350D01*
Y240734D02*Y239984D01*
X154150Y244484D02*Y238484D01*
X153400D02*X154150Y239234D01*
X151900Y238484D02*X153400D01*
X151150Y239234D02*X151900Y238484D01*
X151150Y240734D02*Y239234D01*
Y240734D02*X151900Y241484D01*
X153400D01*
X154150Y240734D01*
X157450Y241484D02*Y240734D01*
Y239234D02*Y238484D01*
X155950Y243734D02*Y242984D01*
Y243734D02*X156700Y244484D01*
X158200D01*
X158950Y243734D01*
Y242984D01*
X157450Y241484D02*X158950Y242984D01*
X130000Y235234D02*X160750D01*
X0Y259484D02*X3000D01*
X1500D02*Y253484D01*
X4800Y259484D02*Y253484D01*
Y255734D02*X5550Y256484D01*
X7050D01*
X7800Y255734D01*
Y253484D01*
X10350D02*X12600D01*
X9600Y254234D02*X10350Y253484D01*
X9600Y255734D02*Y254234D01*
Y255734D02*X10350Y256484D01*
X11850D01*
X12600Y255734D01*
X9600Y254984D02*X12600D01*
Y255734D02*Y254984D01*
X15150Y255734D02*Y253484D01*
Y255734D02*X15900Y256484D01*
X17400D01*
X14400D02*X15150Y255734D01*
X19950Y253484D02*X22200D01*
X19200Y254234D02*X19950Y253484D01*
X19200Y255734D02*Y254234D01*
Y255734D02*X19950Y256484D01*
X21450D01*
X22200Y255734D01*
X19200Y254984D02*X22200D01*
Y255734D02*Y254984D01*
X28950Y256484D02*X29700Y255734D01*
X27450Y256484D02*X28950D01*
X26700Y255734D02*X27450Y256484D01*
X26700Y255734D02*Y254234D01*
X27450Y253484D01*
X29700Y256484D02*Y254234D01*
X30450Y253484D01*
X27450D02*X28950D01*
X29700Y254234D01*
X33000Y255734D02*Y253484D01*
Y255734D02*X33750Y256484D01*
X35250D01*
X32250D02*X33000Y255734D01*
X37800Y253484D02*X40050D01*
X37050Y254234D02*X37800Y253484D01*
X37050Y255734D02*Y254234D01*
Y255734D02*X37800Y256484D01*
X39300D01*
X40050Y255734D01*
X37050Y254984D02*X40050D01*
Y255734D02*Y254984D01*
X46800Y259484D02*X47550Y258734D01*
X45300Y259484D02*X46800D01*
X44550Y258734D02*X45300Y259484D01*
X44550Y258734D02*Y254234D01*
X45300Y253484D01*
X46800Y256784D02*X47550Y256034D01*
X44550Y256784D02*X46800D01*
X45300Y253484D02*X46800D01*
X47550Y254234D01*
Y256034D02*Y254234D01*
X55050Y259484D02*Y253484D01*
X54300D02*X55050Y254234D01*
X52800Y253484D02*X54300D01*
X52050Y254234D02*X52800Y253484D01*
X52050Y255734D02*Y254234D01*
Y255734D02*X52800Y256484D01*
X54300D01*
X55050Y255734D01*
G54D141*X56850Y257984D02*Y257834D01*
G54D140*Y255734D02*Y253484D01*
X59100Y258734D02*Y253484D01*
Y258734D02*X59850Y259484D01*
X60600D01*
X58350Y256484D02*X59850D01*
X62850Y258734D02*Y253484D01*
Y258734D02*X63600Y259484D01*
X64350D01*
X62100Y256484D02*X63600D01*
X66600Y253484D02*X68850D01*
X65850Y254234D02*X66600Y253484D01*
X65850Y255734D02*Y254234D01*
Y255734D02*X66600Y256484D01*
X68100D01*
X68850Y255734D01*
X65850Y254984D02*X68850D01*
Y255734D02*Y254984D01*
X71400Y255734D02*Y253484D01*
Y255734D02*X72150Y256484D01*
X73650D01*
X70650D02*X71400Y255734D01*
X76200Y253484D02*X78450D01*
X75450Y254234D02*X76200Y253484D01*
X75450Y255734D02*Y254234D01*
Y255734D02*X76200Y256484D01*
X77700D01*
X78450Y255734D01*
X75450Y254984D02*X78450D01*
Y255734D02*Y254984D01*
X81000Y255734D02*Y253484D01*
Y255734D02*X81750Y256484D01*
X82500D01*
X83250Y255734D01*
Y253484D01*
X80250Y256484D02*X81000Y255734D01*
X85800Y259484D02*Y254234D01*
X86550Y253484D01*
X85050Y257234D02*X86550D01*
X93750Y259484D02*Y253484D01*
X93000D02*X93750Y254234D01*
X91500Y253484D02*X93000D01*
X90750Y254234D02*X91500Y253484D01*
X90750Y255734D02*Y254234D01*
Y255734D02*X91500Y256484D01*
X93000D01*
X93750Y255734D01*
X96300D02*Y253484D01*
Y255734D02*X97050Y256484D01*
X98550D01*
X95550D02*X96300Y255734D01*
G54D141*X100350Y257984D02*Y257834D01*
G54D140*Y255734D02*Y253484D01*
X101850Y259484D02*Y254234D01*
X102600Y253484D01*
X104100Y259484D02*Y254234D01*
X104850Y253484D01*
X109800D02*X112050D01*
X112800Y254234D01*
X112050Y254984D02*X112800Y254234D01*
X109800Y254984D02*X112050D01*
X109050Y255734D02*X109800Y254984D01*
X109050Y255734D02*X109800Y256484D01*
X112050D01*
X112800Y255734D01*
X109050Y254234D02*X109800Y253484D01*
G54D141*X114600Y257984D02*Y257834D01*
G54D140*Y255734D02*Y253484D01*
X116100Y256484D02*X119100D01*
X116100Y253484D02*X119100Y256484D01*
X116100Y253484D02*X119100D01*
X121650D02*X123900D01*
X120900Y254234D02*X121650Y253484D01*
X120900Y255734D02*Y254234D01*
Y255734D02*X121650Y256484D01*
X123150D01*
X123900Y255734D01*
X120900Y254984D02*X123900D01*
Y255734D02*Y254984D01*
X126450Y253484D02*X128700D01*
X129450Y254234D01*
X128700Y254984D02*X129450Y254234D01*
X126450Y254984D02*X128700D01*
X125700Y255734D02*X126450Y254984D01*
X125700Y255734D02*X126450Y256484D01*
X128700D01*
X129450Y255734D01*
X125700Y254234D02*X126450Y253484D01*
X133950Y256484D02*Y254234D01*
X134700Y253484D01*
X136200D01*
X136950Y254234D01*
Y256484D02*Y254234D01*
X139500Y253484D02*X141750D01*
X142500Y254234D01*
X141750Y254984D02*X142500Y254234D01*
X139500Y254984D02*X141750D01*
X138750Y255734D02*X139500Y254984D01*
X138750Y255734D02*X139500Y256484D01*
X141750D01*
X142500Y255734D01*
X138750Y254234D02*X139500Y253484D01*
X145050D02*X147300D01*
X144300Y254234D02*X145050Y253484D01*
X144300Y255734D02*Y254234D01*
Y255734D02*X145050Y256484D01*
X146550D01*
X147300Y255734D01*
X144300Y254984D02*X147300D01*
Y255734D02*Y254984D01*
X152100Y259484D02*Y253484D01*
X151350D02*X152100Y254234D01*
X149850Y253484D02*X151350D01*
X149100Y254234D02*X149850Y253484D01*
X149100Y255734D02*Y254234D01*
Y255734D02*X149850Y256484D01*
X151350D01*
X152100Y255734D01*
G54D141*X156600Y257984D02*Y257834D01*
G54D140*Y255734D02*Y253484D01*
X158850Y255734D02*Y253484D01*
Y255734D02*X159600Y256484D01*
X160350D01*
X161100Y255734D01*
Y253484D01*
X158100Y256484D02*X158850Y255734D01*
X166350Y259484D02*Y254234D01*
X167100Y253484D01*
X165600Y257234D02*X167100D01*
X168600Y259484D02*Y253484D01*
Y255734D02*X169350Y256484D01*
X170850D01*
X171600Y255734D01*
Y253484D01*
G54D141*X173400Y257984D02*Y257834D01*
G54D140*Y255734D02*Y253484D01*
X175650D02*X177900D01*
X178650Y254234D01*
X177900Y254984D02*X178650Y254234D01*
X175650Y254984D02*X177900D01*
X174900Y255734D02*X175650Y254984D01*
X174900Y255734D02*X175650Y256484D01*
X177900D01*
X178650Y255734D01*
X174900Y254234D02*X175650Y253484D01*
X183150Y259484D02*Y254234D01*
X183900Y253484D01*
X187650Y256484D02*X188400Y255734D01*
X186150Y256484D02*X187650D01*
X185400Y255734D02*X186150Y256484D01*
X185400Y255734D02*Y254234D01*
X186150Y253484D01*
X188400Y256484D02*Y254234D01*
X189150Y253484D01*
X186150D02*X187650D01*
X188400Y254234D01*
X190950Y256484D02*Y254234D01*
X191700Y253484D01*
X193950Y256484D02*Y251984D01*
X193200Y251234D02*X193950Y251984D01*
X191700Y251234D02*X193200D01*
X190950Y251984D02*X191700Y251234D01*
Y253484D02*X193200D01*
X193950Y254234D01*
X195750Y255734D02*Y254234D01*
Y255734D02*X196500Y256484D01*
X198000D01*
X198750Y255734D01*
Y254234D01*
X198000Y253484D02*X198750Y254234D01*
X196500Y253484D02*X198000D01*
X195750Y254234D02*X196500Y253484D01*
X200550Y256484D02*Y254234D01*
X201300Y253484D01*
X202800D01*
X203550Y254234D01*
Y256484D02*Y254234D01*
X206100Y259484D02*Y254234D01*
X206850Y253484D01*
X205350Y257234D02*X206850D01*
X208350Y251984D02*X209850Y253484D01*
X215100D02*X218100Y259484D01*
X214350D02*X218100D01*
X222150D02*X222900Y258734D01*
X220650Y259484D02*X222150D01*
X219900Y258734D02*X220650Y259484D01*
X219900Y258734D02*Y254234D01*
X220650Y253484D01*
X222150Y256784D02*X222900Y256034D01*
X219900Y256784D02*X222150D01*
X220650Y253484D02*X222150D01*
X222900Y254234D01*
Y256034D02*Y254234D01*
X227400Y259484D02*Y253484D01*
Y255734D02*X228150Y256484D01*
X229650D01*
X230400Y255734D01*
Y253484D01*
X232200Y255734D02*Y254234D01*
Y255734D02*X232950Y256484D01*
X234450D01*
X235200Y255734D01*
Y254234D01*
X234450Y253484D02*X235200Y254234D01*
X232950Y253484D02*X234450D01*
X232200Y254234D02*X232950Y253484D01*
X237000Y259484D02*Y254234D01*
X237750Y253484D01*
X240000D02*X242250D01*
X239250Y254234D02*X240000Y253484D01*
X239250Y255734D02*Y254234D01*
Y255734D02*X240000Y256484D01*
X241500D01*
X242250Y255734D01*
X239250Y254984D02*X242250D01*
Y255734D02*Y254984D01*
X244800Y253484D02*X247050D01*
X247800Y254234D01*
X247050Y254984D02*X247800Y254234D01*
X244800Y254984D02*X247050D01*
X244050Y255734D02*X244800Y254984D01*
X244050Y255734D02*X244800Y256484D01*
X247050D01*
X247800Y255734D01*
X244050Y254234D02*X244800Y253484D01*
X253050Y259484D02*Y254234D01*
X253800Y253484D01*
X252300Y257234D02*X253800D01*
X255300Y255734D02*Y254234D01*
Y255734D02*X256050Y256484D01*
X257550D01*
X258300Y255734D01*
Y254234D01*
X257550Y253484D02*X258300Y254234D01*
X256050Y253484D02*X257550D01*
X255300Y254234D02*X256050Y253484D01*
X260850Y259484D02*Y254234D01*
X261600Y253484D01*
X260100Y257234D02*X261600D01*
X265350Y256484D02*X266100Y255734D01*
X263850Y256484D02*X265350D01*
X263100Y255734D02*X263850Y256484D01*
X263100Y255734D02*Y254234D01*
X263850Y253484D01*
X266100Y256484D02*Y254234D01*
X266850Y253484D01*
X263850D02*X265350D01*
X266100Y254234D01*
X268650Y259484D02*Y254234D01*
X269400Y253484D01*
G54D142*X9843Y31496D02*X80709D01*
Y5905D01*
X108268D01*
Y31496D01*
X80709Y120078D02*Y94488D01*
X9843Y94489D01*
Y31496D01*
X151575D02*Y94488D01*
X108268D01*
Y120078D02*X80709D01*
X108268Y94488D02*Y120078D01*
Y31496D02*X151575D01*
G54D140*X0Y-9500D02*X3000D01*
X3750Y-8750D01*
Y-6950D02*Y-8750D01*
X3000Y-6200D02*X3750Y-6950D01*
X750Y-6200D02*X3000D01*
X750Y-3500D02*Y-9500D01*
X0Y-3500D02*X3000D01*
X3750Y-4250D01*
Y-5450D01*
X3000Y-6200D02*X3750Y-5450D01*
X5550Y-7250D02*Y-8750D01*
Y-7250D02*X6300Y-6500D01*
X7800D01*
X8550Y-7250D01*
Y-8750D01*
X7800Y-9500D02*X8550Y-8750D01*
X6300Y-9500D02*X7800D01*
X5550Y-8750D02*X6300Y-9500D01*
X12600Y-6500D02*X13350Y-7250D01*
X11100Y-6500D02*X12600D01*
X10350Y-7250D02*X11100Y-6500D01*
X10350Y-7250D02*Y-8750D01*
X11100Y-9500D01*
X13350Y-6500D02*Y-8750D01*
X14100Y-9500D01*
X11100D02*X12600D01*
X13350Y-8750D01*
X16650Y-7250D02*Y-9500D01*
Y-7250D02*X17400Y-6500D01*
X18900D01*
X15900D02*X16650Y-7250D01*
X23700Y-3500D02*Y-9500D01*
X22950D02*X23700Y-8750D01*
X21450Y-9500D02*X22950D01*
X20700Y-8750D02*X21450Y-9500D01*
X20700Y-7250D02*Y-8750D01*
Y-7250D02*X21450Y-6500D01*
X22950D01*
X23700Y-7250D01*
X28200D02*Y-8750D01*
Y-7250D02*X28950Y-6500D01*
X30450D01*
X31200Y-7250D01*
Y-8750D01*
X30450Y-9500D02*X31200Y-8750D01*
X28950Y-9500D02*X30450D01*
X28200Y-8750D02*X28950Y-9500D01*
X33000Y-6500D02*Y-8750D01*
X33750Y-9500D01*
X35250D01*
X36000Y-8750D01*
Y-6500D02*Y-8750D01*
X38550Y-3500D02*Y-8750D01*
X39300Y-9500D01*
X37800Y-5750D02*X39300D01*
X40800Y-3500D02*Y-8750D01*
X41550Y-9500D01*
G54D141*X43050Y-5000D02*Y-5150D01*
G54D140*Y-7250D02*Y-9500D01*
X45300Y-7250D02*Y-9500D01*
Y-7250D02*X46050Y-6500D01*
X46800D01*
X47550Y-7250D01*
Y-9500D01*
X44550Y-6500D02*X45300Y-7250D01*
X50100Y-9500D02*X52350D01*
X49350Y-8750D02*X50100Y-9500D01*
X49350Y-7250D02*Y-8750D01*
Y-7250D02*X50100Y-6500D01*
X51600D01*
X52350Y-7250D01*
X49350Y-8000D02*X52350D01*
Y-7250D02*Y-8000D01*
G54D141*X56850Y-5000D02*Y-5150D01*
G54D140*Y-7250D02*Y-9500D01*
X59100D02*X61350D01*
X62100Y-8750D01*
X61350Y-8000D02*X62100Y-8750D01*
X59100Y-8000D02*X61350D01*
X58350Y-7250D02*X59100Y-8000D01*
X58350Y-7250D02*X59100Y-6500D01*
X61350D01*
X62100Y-7250D01*
X58350Y-8750D02*X59100Y-9500D01*
X67350Y-3500D02*Y-8750D01*
X68100Y-9500D01*
X66600Y-5750D02*X68100D01*
X69600Y-3500D02*Y-9500D01*
Y-7250D02*X70350Y-6500D01*
X71850D01*
X72600Y-7250D01*
Y-9500D01*
X75150D02*X77400D01*
X74400Y-8750D02*X75150Y-9500D01*
X74400Y-7250D02*Y-8750D01*
Y-7250D02*X75150Y-6500D01*
X76650D01*
X77400Y-7250D01*
X74400Y-8000D02*X77400D01*
Y-7250D02*Y-8000D01*
X82650Y-6500D02*X84900D01*
X81900Y-7250D02*X82650Y-6500D01*
X81900Y-7250D02*Y-8750D01*
X82650Y-9500D01*
X84900D01*
X87450D02*X89700D01*
X86700Y-8750D02*X87450Y-9500D01*
X86700Y-7250D02*Y-8750D01*
Y-7250D02*X87450Y-6500D01*
X88950D01*
X89700Y-7250D01*
X86700Y-8000D02*X89700D01*
Y-7250D02*Y-8000D01*
X92250Y-7250D02*Y-9500D01*
Y-7250D02*X93000Y-6500D01*
X93750D01*
X94500Y-7250D01*
Y-9500D01*
X91500Y-6500D02*X92250Y-7250D01*
X97050Y-3500D02*Y-8750D01*
X97800Y-9500D01*
X96300Y-5750D02*X97800D01*
X100050Y-9500D02*X102300D01*
X99300Y-8750D02*X100050Y-9500D01*
X99300Y-7250D02*Y-8750D01*
Y-7250D02*X100050Y-6500D01*
X101550D01*
X102300Y-7250D01*
X99300Y-8000D02*X102300D01*
Y-7250D02*Y-8000D01*
X104850Y-7250D02*Y-9500D01*
Y-7250D02*X105600Y-6500D01*
X107100D01*
X104100D02*X104850Y-7250D01*
X108900Y-3500D02*Y-8750D01*
X109650Y-9500D01*
G54D141*X111150Y-5000D02*Y-5150D01*
G54D140*Y-7250D02*Y-9500D01*
X113400Y-7250D02*Y-9500D01*
Y-7250D02*X114150Y-6500D01*
X114900D01*
X115650Y-7250D01*
Y-9500D01*
X112650Y-6500D02*X113400Y-7250D01*
X118200Y-9500D02*X120450D01*
X117450Y-8750D02*X118200Y-9500D01*
X117450Y-7250D02*Y-8750D01*
Y-7250D02*X118200Y-6500D01*
X119700D01*
X120450Y-7250D01*
X117450Y-8000D02*X120450D01*
Y-7250D02*Y-8000D01*
X124950Y-7250D02*Y-8750D01*
Y-7250D02*X125700Y-6500D01*
X127200D01*
X127950Y-7250D01*
Y-8750D01*
X127200Y-9500D02*X127950Y-8750D01*
X125700Y-9500D02*X127200D01*
X124950Y-8750D02*X125700Y-9500D01*
X130500Y-4250D02*Y-9500D01*
Y-4250D02*X131250Y-3500D01*
X132000D01*
X129750Y-6500D02*X131250D01*
X136950Y-3500D02*Y-8750D01*
X137700Y-9500D01*
X136200Y-5750D02*X137700D01*
X139200Y-3500D02*Y-9500D01*
Y-7250D02*X139950Y-6500D01*
X141450D01*
X142200Y-7250D01*
Y-9500D01*
G54D141*X144000Y-5000D02*Y-5150D01*
G54D140*Y-7250D02*Y-9500D01*
X146250D02*X148500D01*
X149250Y-8750D01*
X148500Y-8000D02*X149250Y-8750D01*
X146250Y-8000D02*X148500D01*
X145500Y-7250D02*X146250Y-8000D01*
X145500Y-7250D02*X146250Y-6500D01*
X148500D01*
X149250Y-7250D01*
X145500Y-8750D02*X146250Y-9500D01*
X154500Y-7250D02*Y-11750D01*
X153750Y-6500D02*X154500Y-7250D01*
X155250Y-6500D01*
X156750D01*
X157500Y-7250D01*
Y-8750D01*
X156750Y-9500D02*X157500Y-8750D01*
X155250Y-9500D02*X156750D01*
X154500Y-8750D02*X155250Y-9500D01*
X161550Y-6500D02*X162300Y-7250D01*
X160050Y-6500D02*X161550D01*
X159300Y-7250D02*X160050Y-6500D01*
X159300Y-7250D02*Y-8750D01*
X160050Y-9500D01*
X162300Y-6500D02*Y-8750D01*
X163050Y-9500D01*
X160050D02*X161550D01*
X162300Y-8750D01*
X165600Y-3500D02*Y-8750D01*
X166350Y-9500D01*
X164850Y-5750D02*X166350D01*
X167850Y-3500D02*Y-9500D01*
Y-7250D02*X168600Y-6500D01*
X170100D01*
X170850Y-7250D01*
Y-9500D01*
X200750Y154484D02*Y148484D01*
X202700Y154484D02*X203750Y153434D01*
Y149534D01*
X202700Y148484D02*X203750Y149534D01*
X200000Y148484D02*X202700D01*
X200000Y154484D02*X202700D01*
X207800Y151484D02*X208550Y150734D01*
X206300Y151484D02*X207800D01*
X205550Y150734D02*X206300Y151484D01*
X205550Y150734D02*Y149234D01*
X206300Y148484D01*
X208550Y151484D02*Y149234D01*
X209300Y148484D01*
X206300D02*X207800D01*
X208550Y149234D01*
X211850Y154484D02*Y149234D01*
X212600Y148484D01*
X211100Y152234D02*X212600D01*
X214850Y148484D02*X217100D01*
X214100Y149234D02*X214850Y148484D01*
X214100Y150734D02*Y149234D01*
Y150734D02*X214850Y151484D01*
X216350D01*
X217100Y150734D01*
X214100Y149984D02*X217100D01*
Y150734D02*Y149984D01*
X218900Y152234D02*X219650D01*
X218900Y150734D02*X219650D01*
X224150Y154484D02*Y148484D01*
Y154484D02*X226400Y151484D01*
X228650Y154484D01*
Y148484D01*
X230450Y150734D02*Y149234D01*
Y150734D02*X231200Y151484D01*
X232700D01*
X233450Y150734D01*
Y149234D01*
X232700Y148484D02*X233450Y149234D01*
X231200Y148484D02*X232700D01*
X230450Y149234D02*X231200Y148484D01*
X236000Y150734D02*Y148484D01*
Y150734D02*X236750Y151484D01*
X237500D01*
X238250Y150734D01*
Y148484D01*
X235250Y151484D02*X236000Y150734D01*
X242750Y153734D02*X243500Y154484D01*
X245750D01*
X246500Y153734D01*
Y152234D01*
X242750Y148484D02*X246500Y152234D01*
X242750Y148484D02*X246500D01*
X248300Y149234D02*X249050Y148484D01*
X248300Y150434D02*Y149234D01*
Y150434D02*X249350Y151484D01*
X250250D01*
X251300Y150434D01*
Y149234D01*
X250550Y148484D02*X251300Y149234D01*
X249050Y148484D02*X250550D01*
X248300Y152534D02*X249350Y151484D01*
X248300Y153734D02*Y152534D01*
Y153734D02*X249050Y154484D01*
X250550D01*
X251300Y153734D01*
Y152534D01*
X250250Y151484D02*X251300Y152534D01*
X255800Y153734D02*Y149234D01*
Y153734D02*X256550Y154484D01*
X258050D01*
X258800Y153734D01*
Y149234D01*
X258050Y148484D02*X258800Y149234D01*
X256550Y148484D02*X258050D01*
X255800Y149234D02*X256550Y148484D01*
X261350Y151484D02*X263600D01*
X260600Y150734D02*X261350Y151484D01*
X260600Y150734D02*Y149234D01*
X261350Y148484D01*
X263600D01*
X266150Y154484D02*Y149234D01*
X266900Y148484D01*
X265400Y152234D02*X266900D01*
X271100Y153734D02*X271850Y154484D01*
X274100D01*
X274850Y153734D01*
Y152234D01*
X271100Y148484D02*X274850Y152234D01*
X271100Y148484D02*X274850D01*
X276650Y149234D02*X277400Y148484D01*
X276650Y153734D02*Y149234D01*
Y153734D02*X277400Y154484D01*
X278900D01*
X279650Y153734D01*
Y149234D01*
X278900Y148484D02*X279650Y149234D01*
X277400Y148484D02*X278900D01*
X276650Y149984D02*X279650Y152984D01*
X281450Y153284D02*X282650Y154484D01*
Y148484D01*
X281450D02*X283700D01*
X285500Y153734D02*X286250Y154484D01*
X287750D01*
X288500Y153734D01*
X287750Y148484D02*X288500Y149234D01*
X286250Y148484D02*X287750D01*
X285500Y149234D02*X286250Y148484D01*
Y151784D02*X287750D01*
X288500Y153734D02*Y152534D01*
Y151034D02*Y149234D01*
Y151034D02*X287750Y151784D01*
X288500Y152534D02*X287750Y151784D01*
X293000Y149234D02*X293750Y148484D01*
X293000Y153734D02*Y149234D01*
Y153734D02*X293750Y154484D01*
X295250D01*
X296000Y153734D01*
Y149234D01*
X295250Y148484D02*X296000Y149234D01*
X293750Y148484D02*X295250D01*
X293000Y149984D02*X296000Y152984D01*
X297800Y149234D02*X298550Y148484D01*
X297800Y150434D02*Y149234D01*
Y150434D02*X298850Y151484D01*
X299750D01*
X300800Y150434D01*
Y149234D01*
X300050Y148484D02*X300800Y149234D01*
X298550Y148484D02*X300050D01*
X297800Y152534D02*X298850Y151484D01*
X297800Y153734D02*Y152534D01*
Y153734D02*X298550Y154484D01*
X300050D01*
X300800Y153734D01*
Y152534D01*
X299750Y151484D02*X300800Y152534D01*
X302600Y152234D02*X303350D01*
X302600Y150734D02*X303350D01*
X305150Y153284D02*X306350Y154484D01*
Y148484D01*
X305150D02*X307400D01*
X309200Y153734D02*X309950Y154484D01*
X312200D01*
X312950Y153734D01*
Y152234D01*
X309200Y148484D02*X312950Y152234D01*
X309200Y148484D02*X312950D01*
X314750Y152234D02*X315500D01*
X314750Y150734D02*X315500D01*
X317300Y149234D02*X318050Y148484D01*
X317300Y153734D02*Y149234D01*
Y153734D02*X318050Y154484D01*
X319550D01*
X320300Y153734D01*
Y149234D01*
X319550Y148484D02*X320300Y149234D01*
X318050Y148484D02*X319550D01*
X317300Y149984D02*X320300Y152984D01*
X322850Y148484D02*X325100Y151484D01*
Y153734D02*Y151484D01*
X324350Y154484D02*X325100Y153734D01*
X322850Y154484D02*X324350D01*
X322100Y153734D02*X322850Y154484D01*
X322100Y153734D02*Y152234D01*
X322850Y151484D01*
X325100D01*
X330350Y154484D02*Y148484D01*
X329600Y154484D02*X332600D01*
X333350Y153734D01*
Y152234D01*
X332600Y151484D02*X333350Y152234D01*
X330350Y151484D02*X332600D01*
X335150Y154484D02*Y148484D01*
Y154484D02*X337400Y151484D01*
X339650Y154484D01*
Y148484D01*
X347150Y154484D02*X347900Y153734D01*
X344900Y154484D02*X347150D01*
X344150Y153734D02*X344900Y154484D01*
X344150Y153734D02*Y149234D01*
X344900Y148484D01*
X347150D01*
X347900Y149234D01*
Y150734D02*Y149234D01*
X347150Y151484D02*X347900Y150734D01*
X345650Y151484D02*X347150D01*
X349700Y154484D02*Y148484D01*
Y154484D02*X351950Y151484D01*
X354200Y154484D01*
Y148484D01*
X356000Y154484D02*X359000D01*
X357500D02*Y148484D01*
X363500Y154484D02*Y149234D01*
X364250Y148484D01*
X365750D01*
X366500Y149234D01*
Y154484D02*Y149234D01*
X368300Y154484D02*X371300D01*
X369800D02*Y148484D01*
X374150D02*X376100D01*
X373100Y149534D02*X374150Y148484D01*
X373100Y153434D02*Y149534D01*
Y153434D02*X374150Y154484D01*
X376100D01*
X200000Y167984D02*Y163484D01*
Y167984D02*X201050Y169484D01*
X202700D01*
X203750Y167984D01*
Y163484D01*
X200000Y166484D02*X203750D01*
X205550D02*Y164234D01*
X206300Y163484D01*
X207800D01*
X208550Y164234D01*
Y166484D02*Y164234D01*
X211100Y169484D02*Y164234D01*
X211850Y163484D01*
X210350Y167234D02*X211850D01*
X213350Y169484D02*Y163484D01*
Y165734D02*X214100Y166484D01*
X215600D01*
X216350Y165734D01*
Y163484D01*
X218150Y165734D02*Y164234D01*
Y165734D02*X218900Y166484D01*
X220400D01*
X221150Y165734D01*
Y164234D01*
X220400Y163484D02*X221150Y164234D01*
X218900Y163484D02*X220400D01*
X218150Y164234D02*X218900Y163484D01*
X223700Y165734D02*Y163484D01*
Y165734D02*X224450Y166484D01*
X225950D01*
X222950D02*X223700Y165734D01*
X227750Y167234D02*X228500D01*
X227750Y165734D02*X228500D01*
X200000Y184484D02*X203000D01*
X201500D02*Y178484D01*
G54D141*X204800Y182984D02*Y182834D01*
G54D140*Y180734D02*Y178484D01*
X207050Y184484D02*Y179234D01*
X207800Y178484D01*
X206300Y182234D02*X207800D01*
X209300Y184484D02*Y179234D01*
X210050Y178484D01*
X212300D02*X214550D01*
X211550Y179234D02*X212300Y178484D01*
X211550Y180734D02*Y179234D01*
Y180734D02*X212300Y181484D01*
X213800D01*
X214550Y180734D01*
X211550Y179984D02*X214550D01*
Y180734D02*Y179984D01*
X216350Y182234D02*X217100D01*
X216350Y180734D02*X217100D01*
X221600Y179234D02*X222350Y178484D01*
X221600Y183734D02*X222350Y184484D01*
X221600Y183734D02*Y179234D01*
X224150Y181484D02*Y179234D01*
X224900Y178484D01*
X226400D01*
X227150Y179234D01*
Y181484D02*Y179234D01*
X229700Y180734D02*Y178484D01*
Y180734D02*X230450Y181484D01*
X231200D01*
X231950Y180734D01*
Y178484D01*
X228950Y181484D02*X229700Y180734D01*
X233750Y184484D02*Y178484D01*
Y180734D02*X236000Y178484D01*
X233750Y180734D02*X235250Y182234D01*
X238550Y180734D02*Y178484D01*
Y180734D02*X239300Y181484D01*
X240050D01*
X240800Y180734D01*
Y178484D01*
X237800Y181484D02*X238550Y180734D01*
X242600D02*Y179234D01*
Y180734D02*X243350Y181484D01*
X244850D01*
X245600Y180734D01*
Y179234D01*
X244850Y178484D02*X245600Y179234D01*
X243350Y178484D02*X244850D01*
X242600Y179234D02*X243350Y178484D01*
X247400Y181484D02*Y179234D01*
X248150Y178484D01*
X248900D01*
X249650Y179234D01*
Y181484D02*Y179234D01*
X250400Y178484D01*
X251150D01*
X251900Y179234D01*
Y181484D02*Y179234D01*
X254450Y180734D02*Y178484D01*
Y180734D02*X255200Y181484D01*
X255950D01*
X256700Y180734D01*
Y178484D01*
X253700Y181484D02*X254450Y180734D01*
X258500Y184484D02*X259250Y183734D01*
Y179234D01*
X258500Y178484D02*X259250Y179234D01*
X263750Y181484D02*X266750D01*
X271250Y184484D02*Y178484D01*
Y184484D02*X274250D01*
X271250Y181784D02*X273500D01*
X278300Y181484D02*X279050Y180734D01*
X276800Y181484D02*X278300D01*
X276050Y180734D02*X276800Y181484D01*
X276050Y180734D02*Y179234D01*
X276800Y178484D01*
X279050Y181484D02*Y179234D01*
X279800Y178484D01*
X276800D02*X278300D01*
X279050Y179234D01*
X281600Y184484D02*Y178484D01*
Y179234D02*X282350Y178484D01*
X283850D01*
X284600Y179234D01*
Y180734D02*Y179234D01*
X283850Y181484D02*X284600Y180734D01*
X282350Y181484D02*X283850D01*
X281600Y180734D02*X282350Y181484D01*
X287150Y180734D02*Y178484D01*
Y180734D02*X287900Y181484D01*
X289400D01*
X286400D02*X287150Y180734D01*
G54D141*X291200Y182984D02*Y182834D01*
G54D140*Y180734D02*Y178484D01*
X293450Y181484D02*X295700D01*
X292700Y180734D02*X293450Y181484D01*
X292700Y180734D02*Y179234D01*
X293450Y178484D01*
X295700D01*
X299750Y181484D02*X300500Y180734D01*
X298250Y181484D02*X299750D01*
X297500Y180734D02*X298250Y181484D01*
X297500Y180734D02*Y179234D01*
X298250Y178484D01*
X300500Y181484D02*Y179234D01*
X301250Y178484D01*
X298250D02*X299750D01*
X300500Y179234D01*
X303800Y184484D02*Y179234D01*
X304550Y178484D01*
X303050Y182234D02*X304550D01*
G54D141*X306050Y182984D02*Y182834D01*
G54D140*Y180734D02*Y178484D01*
X307550Y180734D02*Y179234D01*
Y180734D02*X308300Y181484D01*
X309800D01*
X310550Y180734D01*
Y179234D01*
X309800Y178484D02*X310550Y179234D01*
X308300Y178484D02*X309800D01*
X307550Y179234D02*X308300Y178484D01*
X313100Y180734D02*Y178484D01*
Y180734D02*X313850Y181484D01*
X314600D01*
X315350Y180734D01*
Y178484D01*
X312350Y181484D02*X313100Y180734D01*
X320600Y184484D02*Y178484D01*
X322550Y184484D02*X323600Y183434D01*
Y179534D01*
X322550Y178484D02*X323600Y179534D01*
X319850Y178484D02*X322550D01*
X319850Y184484D02*X322550D01*
X326150Y180734D02*Y178484D01*
Y180734D02*X326900Y181484D01*
X328400D01*
X325400D02*X326150Y180734D01*
X332450Y181484D02*X333200Y180734D01*
X330950Y181484D02*X332450D01*
X330200Y180734D02*X330950Y181484D01*
X330200Y180734D02*Y179234D01*
X330950Y178484D01*
X333200Y181484D02*Y179234D01*
X333950Y178484D01*
X330950D02*X332450D01*
X333200Y179234D01*
X335750Y181484D02*Y179234D01*
X336500Y178484D01*
X337250D01*
X338000Y179234D01*
Y181484D02*Y179234D01*
X338750Y178484D01*
X339500D01*
X340250Y179234D01*
Y181484D02*Y179234D01*
G54D141*X342050Y182984D02*Y182834D01*
G54D140*Y180734D02*Y178484D01*
X344300Y180734D02*Y178484D01*
Y180734D02*X345050Y181484D01*
X345800D01*
X346550Y180734D01*
Y178484D01*
X343550Y181484D02*X344300Y180734D01*
X350600Y181484D02*X351350Y180734D01*
X349100Y181484D02*X350600D01*
X348350Y180734D02*X349100Y181484D01*
X348350Y180734D02*Y179234D01*
X349100Y178484D01*
X350600D01*
X351350Y179234D01*
X348350Y176984D02*X349100Y176234D01*
X350600D01*
X351350Y176984D01*
Y181484D02*Y176984D01*
M02*
