G04 start of page 15 for group -4078 idx -4078 *
G04 Title: (unknown), bottomsilk *
G04 Creator: pcb 20110918 *
G04 CreationDate: Mon 28 Oct 2013 08:12:09 PM GMT UTC *
G04 For: tszabo *
G04 Format: Gerber/RS-274X *
G04 PCB-Dimensions: 157480 125984 *
G04 PCB-Coordinate-Origin: lower left *
%MOIN*%
%FSLAX25Y25*%
%LNBOTTOMSILK*%
%ADD130C,0.0050*%
%ADD129C,0.0100*%
G54D129*X71260Y74803D02*Y69291D01*
G54D130*X84645Y20669D02*G75*G03X84645Y20669I9843J0D01*G01*
Y105315D02*G75*G03X84645Y105315I9843J0D01*G01*
G54D129*X96865Y75212D02*Y51560D01*
X73213D01*
Y75212D01*
X96865D01*
X73213Y51560D02*X71713Y50060D01*
X52491Y91541D02*X53791D01*
X51791Y90841D02*X52491Y91541D01*
X51791Y88241D02*Y90841D01*
Y88241D02*X52491Y87541D01*
X53791D01*
X54991Y88341D02*X55791Y87541D01*
Y91541D01*
X54991D02*X56491D01*
X57691Y88341D02*X58491Y87541D01*
Y91541D01*
X57691D02*X59191D01*
X60391Y88041D02*X60891Y87541D01*
X62391D01*
X62891Y88041D01*
Y89041D01*
X60391Y91541D02*X62891Y89041D01*
X60391Y91541D02*X62891D01*
X65839Y90141D02*X67139D01*
X65139Y89441D02*X65839Y90141D01*
X65139Y86841D02*Y89441D01*
Y86841D02*X65839Y86141D01*
X67139D01*
X68339Y86941D02*X69139Y86141D01*
Y90141D01*
X68339D02*X69839D01*
X71039Y86941D02*X71839Y86141D01*
Y90141D01*
X71039D02*X72539D01*
X73739Y86941D02*X74539Y86141D01*
Y90141D01*
X73739D02*X75239D01*
X69650Y76866D02*X71650D01*
X72150Y77366D01*
Y78366D01*
X71650Y78866D02*X72150Y78366D01*
X70150Y78866D02*X71650D01*
X70150Y76866D02*Y80866D01*
X70950Y78866D02*X72150Y80866D01*
X73350Y77666D02*X74150Y76866D01*
Y80866D01*
X73350D02*X74850D01*
X76050Y77366D02*X76550Y76866D01*
X77550D01*
X78050Y77366D01*
X77550Y80866D02*X78050Y80366D01*
X76550Y80866D02*X77550D01*
X76050Y80366D02*X76550Y80866D01*
Y78666D02*X77550D01*
X78050Y77366D02*Y78166D01*
Y79166D02*Y80366D01*
Y79166D02*X77550Y78666D01*
X78050Y78166D02*X77550Y78666D01*
X79250Y77366D02*X79750Y76866D01*
X80750D01*
X81250Y77366D01*
X80750Y80866D02*X81250Y80366D01*
X79750Y80866D02*X80750D01*
X79250Y80366D02*X79750Y80866D01*
Y78666D02*X80750D01*
X81250Y77366D02*Y78166D01*
Y79166D02*Y80366D01*
Y79166D02*X80750Y78666D01*
X81250Y78166D02*X80750Y78666D01*
X124835Y87220D02*X125335Y87720D01*
X123335Y87220D02*X124835D01*
X122835Y87720D02*X123335Y87220D01*
X122835Y87720D02*Y90720D01*
X123335Y91220D01*
X124835D01*
X125335Y90720D01*
Y89720D02*Y90720D01*
X124835Y89220D02*X125335Y89720D01*
X123835Y89220D02*X124835D01*
X126535Y87220D02*Y91220D01*
Y87220D02*X129035Y91220D01*
Y87220D02*Y91220D01*
X130735Y87220D02*Y91220D01*
X132035Y87220D02*X132735Y87920D01*
Y90520D01*
X132035Y91220D02*X132735Y90520D01*
X130235Y91220D02*X132035D01*
X130235Y87220D02*X132035D01*
X112641Y91069D02*X113941D01*
X111941Y90369D02*X112641Y91069D01*
X111941Y87769D02*Y90369D01*
Y87769D02*X112641Y87069D01*
X113941D01*
X115141Y87569D02*X115641Y87069D01*
X117141D01*
X117641Y87569D01*
Y88569D01*
X115141Y91069D02*X117641Y88569D01*
X115141Y91069D02*X117641D01*
X119541D02*X120841D01*
X118841Y90369D02*X119541Y91069D01*
X118841Y87769D02*Y90369D01*
Y87769D02*X119541Y87069D01*
X120841D01*
X121572Y80713D02*X122872D01*
X120872Y80013D02*X121572Y80713D01*
X120872Y77413D02*Y80013D01*
Y77413D02*X121572Y76713D01*
X122872D01*
X124072Y77513D02*X124872Y76713D01*
Y80713D01*
X124072D02*X125572D01*
X126772Y77213D02*X127272Y76713D01*
X128272D01*
X128772Y77213D01*
X128272Y80713D02*X128772Y80213D01*
X127272Y80713D02*X128272D01*
X126772Y80213D02*X127272Y80713D01*
Y78513D02*X128272D01*
X128772Y77213D02*Y78013D01*
Y79013D02*Y80213D01*
Y79013D02*X128272Y78513D01*
X128772Y78013D02*X128272Y78513D01*
X129972Y77213D02*X130472Y76713D01*
X131972D01*
X132472Y77213D01*
Y78213D01*
X129972Y80713D02*X132472Y78213D01*
X129972Y80713D02*X132472D01*
X100642Y71051D02*X102642D01*
X103142Y71551D01*
Y72551D01*
X102642Y73051D02*X103142Y72551D01*
X101142Y73051D02*X102642D01*
X101142Y71051D02*Y75051D01*
X101942Y73051D02*X103142Y75051D01*
X104342Y71851D02*X105142Y71051D01*
Y75051D01*
X104342D02*X105842D01*
X107042Y73551D02*X109042Y71051D01*
X107042Y73551D02*X109542D01*
X109042Y71051D02*Y75051D01*
X110742Y71551D02*X111242Y71051D01*
X112742D01*
X113242Y71551D01*
Y72551D01*
X110742Y75051D02*X113242Y72551D01*
X110742Y75051D02*X113242D01*
X100759Y65839D02*X102659D01*
X103134Y66314D01*
Y67264D01*
X102659Y67739D02*X103134Y67264D01*
X101234Y67739D02*X102659D01*
X101234Y65839D02*Y69639D01*
X101994Y67739D02*X103134Y69639D01*
X104274Y66599D02*X105034Y65839D01*
Y69639D01*
X104274D02*X105699D01*
X106839Y66314D02*X107314Y65839D01*
X108264D01*
X108739Y66314D01*
X108264Y69639D02*X108739Y69164D01*
X107314Y69639D02*X108264D01*
X106839Y69164D02*X107314Y69639D01*
Y67549D02*X108264D01*
X108739Y66314D02*Y67074D01*
Y68024D02*Y69164D01*
Y68024D02*X108264Y67549D01*
X108739Y67074D02*X108264Y67549D01*
X109879Y66314D02*X110354Y65839D01*
X111779D01*
X112254Y66314D01*
Y67264D01*
X109879Y69639D02*X112254Y67264D01*
X109879Y69639D02*X112254D01*
X81697Y87413D02*X83697D01*
X84197Y87913D01*
Y88913D01*
X83697Y89413D02*X84197Y88913D01*
X82197Y89413D02*X83697D01*
X82197Y87413D02*Y91413D01*
X82997Y89413D02*X84197Y91413D01*
X85397Y88213D02*X86197Y87413D01*
Y91413D01*
X85397D02*X86897D01*
X88097Y90913D02*X88597Y91413D01*
X88097Y87913D02*Y90913D01*
Y87913D02*X88597Y87413D01*
X89597D01*
X90097Y87913D01*
Y90913D01*
X89597Y91413D02*X90097Y90913D01*
X88597Y91413D02*X89597D01*
X88097Y90413D02*X90097Y88413D01*
X91297Y88213D02*X92097Y87413D01*
Y91413D01*
X91297D02*X92797D01*
X101096Y91220D02*X102396D01*
X100396Y90520D02*X101096Y91220D01*
X100396Y87920D02*Y90520D01*
Y87920D02*X101096Y87220D01*
X102396D01*
X103596Y87720D02*X104096Y87220D01*
X105596D01*
X106096Y87720D01*
Y88720D01*
X103596Y91220D02*X106096Y88720D01*
X103596Y91220D02*X106096D01*
X107796Y87220D02*Y91220D01*
X109096Y87220D02*X109796Y87920D01*
Y90520D01*
X109096Y91220D02*X109796Y90520D01*
X107296Y91220D02*X109096D01*
X107296Y87220D02*X109096D01*
X82413Y114515D02*Y118515D01*
X84913Y114515D02*Y118515D01*
X82413Y116515D02*X84913D01*
X86113Y115315D02*X86913Y114515D01*
Y118515D01*
X86113D02*X87613D01*
X82218Y7404D02*Y11404D01*
X84718Y7404D02*Y11404D01*
X82218Y9404D02*X84718D01*
X85918Y7904D02*X86418Y7404D01*
X87918D01*
X88418Y7904D01*
Y8904D01*
X85918Y11404D02*X88418Y8904D01*
X85918Y11404D02*X88418D01*
X101453Y51992D02*X103453D01*
X103953Y52492D01*
Y53492D01*
X103453Y53992D02*X103953Y53492D01*
X101953Y53992D02*X103453D01*
X101953Y51992D02*Y55992D01*
X102753Y53992D02*X103953Y55992D01*
X105153Y52792D02*X105953Y51992D01*
Y55992D01*
X105153D02*X106653D01*
X107853Y54492D02*X109853Y51992D01*
X107853Y54492D02*X110353D01*
X109853Y51992D02*Y55992D01*
X111553Y52792D02*X112353Y51992D01*
Y55992D01*
X111553D02*X113053D01*
X102172Y57999D02*X104172D01*
X104672Y58499D01*
Y59499D01*
X104172Y59999D02*X104672Y59499D01*
X102672Y59999D02*X104172D01*
X102672Y57999D02*Y61999D01*
X103472Y59999D02*X104672Y61999D01*
X105872Y58799D02*X106672Y57999D01*
Y61999D01*
X105872D02*X107372D01*
X108572Y58499D02*X109072Y57999D01*
X110072D01*
X110572Y58499D01*
X110072Y61999D02*X110572Y61499D01*
X109072Y61999D02*X110072D01*
X108572Y61499D02*X109072Y61999D01*
Y59799D02*X110072D01*
X110572Y58499D02*Y59299D01*
Y60299D02*Y61499D01*
Y60299D02*X110072Y59799D01*
X110572Y59299D02*X110072Y59799D01*
X111772Y58799D02*X112572Y57999D01*
Y61999D01*
X111772D02*X113272D01*
X112433Y47936D02*X113733D01*
X111733Y47236D02*X112433Y47936D01*
X111733Y44636D02*Y47236D01*
Y44636D02*X112433Y43936D01*
X113733D01*
X114933Y44736D02*X115733Y43936D01*
Y47936D01*
X114933D02*X116433D01*
X117633Y44436D02*X118133Y43936D01*
X119133D01*
X119633Y44436D01*
X119133Y47936D02*X119633Y47436D01*
X118133Y47936D02*X119133D01*
X117633Y47436D02*X118133Y47936D01*
Y45736D02*X119133D01*
X119633Y44436D02*Y45236D01*
Y46236D02*Y47436D01*
Y46236D02*X119133Y45736D01*
X119633Y45236D02*X119133Y45736D01*
X120833Y44736D02*X121633Y43936D01*
Y47936D01*
X120833D02*X122333D01*
X78656Y38545D02*X79956D01*
X77956Y37845D02*X78656Y38545D01*
X77956Y35245D02*Y37845D01*
Y35245D02*X78656Y34545D01*
X79956D01*
X81156Y35345D02*X81956Y34545D01*
Y38545D01*
X81156D02*X82656D01*
X83856Y35045D02*X84356Y34545D01*
X85356D01*
X85856Y35045D01*
X85356Y38545D02*X85856Y38045D01*
X84356Y38545D02*X85356D01*
X83856Y38045D02*X84356Y38545D01*
Y36345D02*X85356D01*
X85856Y35045D02*Y35845D01*
Y36845D02*Y38045D01*
Y36845D02*X85356Y36345D01*
X85856Y35845D02*X85356Y36345D01*
X87056Y35045D02*X87556Y34545D01*
X88556D01*
X89056Y35045D01*
X88556Y38545D02*X89056Y38045D01*
X87556Y38545D02*X88556D01*
X87056Y38045D02*X87556Y38545D01*
Y36345D02*X88556D01*
X89056Y35045D02*Y35845D01*
Y36845D02*Y38045D01*
Y36845D02*X88556Y36345D01*
X89056Y35845D02*X88556Y36345D01*
X63830Y37611D02*X65130D01*
X63130Y36911D02*X63830Y37611D01*
X63130Y34311D02*Y36911D01*
Y34311D02*X63830Y33611D01*
X65130D01*
X66330Y34411D02*X67130Y33611D01*
Y37611D01*
X66330D02*X67830D01*
X69030Y34111D02*X69530Y33611D01*
X71030D01*
X71530Y34111D01*
Y35111D01*
X69030Y37611D02*X71530Y35111D01*
X69030Y37611D02*X71530D01*
X72730Y34411D02*X73530Y33611D01*
Y37611D01*
X72730D02*X74230D01*
X49619Y37615D02*X50919D01*
X48919Y36915D02*X49619Y37615D01*
X48919Y34315D02*Y36915D01*
Y34315D02*X49619Y33615D01*
X50919D01*
X52119Y34415D02*X52919Y33615D01*
Y37615D01*
X52119D02*X53619D01*
X54819Y34115D02*X55319Y33615D01*
X56819D01*
X57319Y34115D01*
Y35115D01*
X54819Y37615D02*X57319Y35115D01*
X54819Y37615D02*X57319D01*
X58519Y34115D02*X59019Y33615D01*
X60519D01*
X61019Y34115D01*
Y35115D01*
X58519Y37615D02*X61019Y35115D01*
X58519Y37615D02*X61019D01*
X58481Y62960D02*Y64960D01*
Y62960D02*X58981Y62460D01*
X59981D01*
X60481Y62960D02*X59981Y62460D01*
X60481Y62960D02*Y64460D01*
X58481D02*X62481D01*
X60481Y63660D02*X62481Y62460D01*
X59281Y61260D02*X58481Y60460D01*
X62481D01*
Y59760D02*Y61260D01*
X60981Y58560D02*X58481Y56560D01*
X60981Y56060D02*Y58560D01*
X58481Y56560D02*X62481D01*
X58981Y54860D02*X58481Y54360D01*
Y53360D02*Y54360D01*
Y53360D02*X58981Y52860D01*
X62481Y53360D02*X61981Y52860D01*
X62481Y53360D02*Y54360D01*
X61981Y54860D02*X62481Y54360D01*
X60281Y53360D02*Y54360D01*
X58981Y52860D02*X59781D01*
X60781D02*X61981D01*
X60781D02*X60281Y53360D01*
X59781Y52860D02*X60281Y53360D01*
X66520Y58203D02*Y61703D01*
X67020Y62203D01*
X68020D01*
X68520Y61703D01*
Y58203D02*Y61703D01*
X69720Y59003D02*X70520Y58203D01*
Y62203D01*
X69720D02*X71220D01*
M02*
